<mxfile host="Electron" modified="2023-05-10T10:31:34.328Z" agent="Mozilla/5.0 (Macintosh; Intel Mac OS X 10_15_7) AppleWebKit/537.36 (KHTML, like Gecko) draw.io/21.2.8 Chrome/112.0.5615.165 Electron/24.2.0 Safari/537.36" etag="rPTuerPNENLkKkQNTSdY" version="21.2.8" type="device">
  <diagram name="Page-1" id="Pu4InRm-y_ZHBcGIkWdE">
    <mxGraphModel dx="3784" dy="1700" grid="1" gridSize="10" guides="1" tooltips="1" connect="1" arrows="1" fold="1" page="1" pageScale="1" pageWidth="1654" pageHeight="1169" math="0" shadow="0">
      <root>
        <mxCell id="0" />
        <mxCell id="1" parent="0" />
        <mxCell id="IjPukpcKFEV-nOy6DhyQ-1" value="Amazon MSK" style="sketch=0;points=[[0,0,0],[0.25,0,0],[0.5,0,0],[0.75,0,0],[1,0,0],[0,1,0],[0.25,1,0],[0.5,1,0],[0.75,1,0],[1,1,0],[0,0.25,0],[0,0.5,0],[0,0.75,0],[1,0.25,0],[1,0.5,0],[1,0.75,0]];outlineConnect=0;fontColor=#232F3E;gradientColor=#945DF2;gradientDirection=north;fillColor=#5A30B5;strokeColor=#ffffff;dashed=0;verticalLabelPosition=bottom;verticalAlign=top;align=center;html=1;fontSize=12;fontStyle=0;aspect=fixed;shape=mxgraph.aws4.resourceIcon;resIcon=mxgraph.aws4.managed_streaming_for_kafka;" vertex="1" parent="1">
          <mxGeometry x="81" y="381" width="78" height="78" as="geometry" />
        </mxCell>
        <mxCell id="IjPukpcKFEV-nOy6DhyQ-2" value="NAT Gateway" style="sketch=0;outlineConnect=0;fontColor=#232F3E;gradientColor=none;fillColor=#4D27AA;strokeColor=none;dashed=0;verticalLabelPosition=bottom;verticalAlign=top;align=center;html=1;fontSize=12;fontStyle=0;aspect=fixed;pointerEvents=1;shape=mxgraph.aws4.nat_gateway;" vertex="1" parent="1">
          <mxGeometry x="-400" y="381" width="78" height="78" as="geometry" />
        </mxCell>
        <mxCell id="IjPukpcKFEV-nOy6DhyQ-42" style="edgeStyle=orthogonalEdgeStyle;rounded=0;orthogonalLoop=1;jettySize=auto;html=1;" edge="1" parent="1" source="IjPukpcKFEV-nOy6DhyQ-3" target="IjPukpcKFEV-nOy6DhyQ-2">
          <mxGeometry relative="1" as="geometry" />
        </mxCell>
        <mxCell id="IjPukpcKFEV-nOy6DhyQ-3" value="SCADA" style="outlineConnect=0;dashed=0;verticalLabelPosition=bottom;verticalAlign=top;align=center;html=1;shape=mxgraph.aws3.factory;fillColor=#5294CF;gradientColor=none;" vertex="1" parent="1">
          <mxGeometry x="-550" y="379.5" width="79.5" height="79.5" as="geometry" />
        </mxCell>
        <mxCell id="IjPukpcKFEV-nOy6DhyQ-39" value="" style="group" vertex="1" connectable="0" parent="1">
          <mxGeometry x="-220" y="250" width="200" height="340" as="geometry" />
        </mxCell>
        <mxCell id="IjPukpcKFEV-nOy6DhyQ-32" value="" style="group" vertex="1" connectable="0" parent="IjPukpcKFEV-nOy6DhyQ-39">
          <mxGeometry x="10" y="60" width="180" height="130" as="geometry" />
        </mxCell>
        <mxCell id="IjPukpcKFEV-nOy6DhyQ-20" value="Stream Producer Task 1" style="group;fillColor=#f5f5f5;fontColor=#333333;strokeColor=none;dashed=1;dashPattern=1 4;rounded=0;container=0;" vertex="1" connectable="0" parent="IjPukpcKFEV-nOy6DhyQ-32">
          <mxGeometry width="180" height="130" as="geometry" />
        </mxCell>
        <mxCell id="IjPukpcKFEV-nOy6DhyQ-18" value="" style="group;strokeColor=none;" vertex="1" connectable="0" parent="IjPukpcKFEV-nOy6DhyQ-32">
          <mxGeometry x="14" y="28" width="154" height="78" as="geometry" />
        </mxCell>
        <mxCell id="IjPukpcKFEV-nOy6DhyQ-10" value="AWS Fargate" style="sketch=0;points=[[0,0,0],[0.25,0,0],[0.5,0,0],[0.75,0,0],[1,0,0],[0,1,0],[0.25,1,0],[0.5,1,0],[0.75,1,0],[1,1,0],[0,0.25,0],[0,0.5,0],[0,0.75,0],[1,0.25,0],[1,0.5,0],[1,0.75,0]];outlineConnect=0;fontColor=#232F3E;gradientColor=#F78E04;gradientDirection=north;fillColor=#D05C17;strokeColor=#ffffff;dashed=0;verticalLabelPosition=bottom;verticalAlign=top;align=center;html=1;fontSize=12;fontStyle=0;aspect=fixed;shape=mxgraph.aws4.resourceIcon;resIcon=mxgraph.aws4.fargate;" vertex="1" parent="IjPukpcKFEV-nOy6DhyQ-18">
          <mxGeometry x="76" width="78" height="78" as="geometry" />
        </mxCell>
        <mxCell id="IjPukpcKFEV-nOy6DhyQ-11" value="Container" style="outlineConnect=0;dashed=0;verticalLabelPosition=bottom;verticalAlign=top;align=center;html=1;shape=mxgraph.aws3.ec2_compute_container;fillColor=#F58534;gradientColor=none;" vertex="1" parent="IjPukpcKFEV-nOy6DhyQ-18">
          <mxGeometry y="21.75" width="60" height="34.5" as="geometry" />
        </mxCell>
        <mxCell id="IjPukpcKFEV-nOy6DhyQ-38" value="Amazon ECS Service" style="points=[[0,0],[0.25,0],[0.5,0],[0.75,0],[1,0],[1,0.25],[1,0.5],[1,0.75],[1,1],[0.75,1],[0.5,1],[0.25,1],[0,1],[0,0.75],[0,0.5],[0,0.25]];outlineConnect=0;gradientColor=none;html=1;whiteSpace=wrap;fontSize=12;fontStyle=0;container=1;pointerEvents=0;collapsible=0;recursiveResize=0;shape=mxgraph.aws4.groupCenter;grIcon=mxgraph.aws4.group_auto_scaling_group;grStroke=1;strokeColor=#D86613;fillColor=none;verticalAlign=top;align=center;fontColor=#D86613;dashed=1;spacingTop=25;" vertex="1" parent="IjPukpcKFEV-nOy6DhyQ-39">
          <mxGeometry width="200" height="340" as="geometry" />
        </mxCell>
        <mxCell id="IjPukpcKFEV-nOy6DhyQ-33" value="" style="group" vertex="1" connectable="0" parent="IjPukpcKFEV-nOy6DhyQ-39">
          <mxGeometry x="10" y="200" width="180" height="130" as="geometry" />
        </mxCell>
        <mxCell id="IjPukpcKFEV-nOy6DhyQ-34" value="Stream Producer Task N" style="group;fillColor=#f5f5f5;fontColor=#333333;strokeColor=none;dashed=1;dashPattern=1 4;rounded=0;container=0;" vertex="1" connectable="0" parent="IjPukpcKFEV-nOy6DhyQ-33">
          <mxGeometry width="180" height="130" as="geometry" />
        </mxCell>
        <mxCell id="IjPukpcKFEV-nOy6DhyQ-35" value="" style="group;strokeColor=none;" vertex="1" connectable="0" parent="IjPukpcKFEV-nOy6DhyQ-33">
          <mxGeometry x="14" y="28" width="154" height="78" as="geometry" />
        </mxCell>
        <mxCell id="IjPukpcKFEV-nOy6DhyQ-36" value="AWS Fargate" style="sketch=0;points=[[0,0,0],[0.25,0,0],[0.5,0,0],[0.75,0,0],[1,0,0],[0,1,0],[0.25,1,0],[0.5,1,0],[0.75,1,0],[1,1,0],[0,0.25,0],[0,0.5,0],[0,0.75,0],[1,0.25,0],[1,0.5,0],[1,0.75,0]];outlineConnect=0;fontColor=#232F3E;gradientColor=#F78E04;gradientDirection=north;fillColor=#D05C17;strokeColor=#ffffff;dashed=0;verticalLabelPosition=bottom;verticalAlign=top;align=center;html=1;fontSize=12;fontStyle=0;aspect=fixed;shape=mxgraph.aws4.resourceIcon;resIcon=mxgraph.aws4.fargate;" vertex="1" parent="IjPukpcKFEV-nOy6DhyQ-35">
          <mxGeometry x="76" width="78" height="78" as="geometry" />
        </mxCell>
        <mxCell id="IjPukpcKFEV-nOy6DhyQ-37" value="Container" style="outlineConnect=0;dashed=0;verticalLabelPosition=bottom;verticalAlign=top;align=center;html=1;shape=mxgraph.aws3.ec2_compute_container;fillColor=#F58534;gradientColor=none;" vertex="1" parent="IjPukpcKFEV-nOy6DhyQ-35">
          <mxGeometry y="21.75" width="60" height="34.5" as="geometry" />
        </mxCell>
        <mxCell id="IjPukpcKFEV-nOy6DhyQ-40" style="edgeStyle=orthogonalEdgeStyle;rounded=0;orthogonalLoop=1;jettySize=auto;html=1;entryX=0;entryY=0.5;entryDx=0;entryDy=0;" edge="1" parent="1" source="IjPukpcKFEV-nOy6DhyQ-2" target="IjPukpcKFEV-nOy6DhyQ-38">
          <mxGeometry relative="1" as="geometry" />
        </mxCell>
        <mxCell id="IjPukpcKFEV-nOy6DhyQ-41" value="Read &lt;br&gt;stream" style="edgeLabel;html=1;align=center;verticalAlign=middle;resizable=0;points=[];" vertex="1" connectable="0" parent="IjPukpcKFEV-nOy6DhyQ-40">
          <mxGeometry x="-0.049" y="1" relative="1" as="geometry">
            <mxPoint y="1" as="offset" />
          </mxGeometry>
        </mxCell>
        <mxCell id="IjPukpcKFEV-nOy6DhyQ-44" value="Publish &lt;br&gt;messages" style="edgeStyle=orthogonalEdgeStyle;rounded=0;orthogonalLoop=1;jettySize=auto;html=1;entryX=0;entryY=0.5;entryDx=0;entryDy=0;entryPerimeter=0;" edge="1" parent="1" source="IjPukpcKFEV-nOy6DhyQ-38" target="IjPukpcKFEV-nOy6DhyQ-1">
          <mxGeometry x="0.0061" relative="1" as="geometry">
            <mxPoint as="offset" />
          </mxGeometry>
        </mxCell>
        <mxCell id="IjPukpcKFEV-nOy6DhyQ-48" value="" style="group" vertex="1" connectable="0" parent="1">
          <mxGeometry x="30" y="200" width="218" height="78" as="geometry" />
        </mxCell>
        <mxCell id="IjPukpcKFEV-nOy6DhyQ-45" value="IAM Role" style="sketch=0;outlineConnect=0;fontColor=#232F3E;gradientColor=none;fillColor=#BF0816;strokeColor=none;dashed=0;verticalLabelPosition=bottom;verticalAlign=top;align=center;html=1;fontSize=12;fontStyle=0;aspect=fixed;pointerEvents=1;shape=mxgraph.aws4.role;" vertex="1" parent="IjPukpcKFEV-nOy6DhyQ-48">
          <mxGeometry y="17" width="78" height="44" as="geometry" />
        </mxCell>
        <mxCell id="IjPukpcKFEV-nOy6DhyQ-46" value="Event Bridge" style="sketch=0;points=[[0,0,0],[0.25,0,0],[0.5,0,0],[0.75,0,0],[1,0,0],[0,1,0],[0.25,1,0],[0.5,1,0],[0.75,1,0],[1,1,0],[0,0.25,0],[0,0.5,0],[0,0.75,0],[1,0.25,0],[1,0.5,0],[1,0.75,0]];outlineConnect=0;fontColor=#232F3E;gradientColor=#FF4F8B;gradientDirection=north;fillColor=#BC1356;strokeColor=#ffffff;dashed=0;verticalLabelPosition=bottom;verticalAlign=top;align=center;html=1;fontSize=12;fontStyle=0;aspect=fixed;shape=mxgraph.aws4.resourceIcon;resIcon=mxgraph.aws4.eventbridge;" vertex="1" parent="IjPukpcKFEV-nOy6DhyQ-48">
          <mxGeometry x="140" width="78" height="78" as="geometry" />
        </mxCell>
        <mxCell id="IjPukpcKFEV-nOy6DhyQ-47" style="edgeStyle=orthogonalEdgeStyle;rounded=0;orthogonalLoop=1;jettySize=auto;html=1;entryX=0;entryY=0.5;entryDx=0;entryDy=0;entryPerimeter=0;" edge="1" parent="IjPukpcKFEV-nOy6DhyQ-48" source="IjPukpcKFEV-nOy6DhyQ-45" target="IjPukpcKFEV-nOy6DhyQ-46">
          <mxGeometry relative="1" as="geometry" />
        </mxCell>
        <mxCell id="IjPukpcKFEV-nOy6DhyQ-51" value="AWS Step Functions workflow" style="points=[[0,0],[0.25,0],[0.5,0],[0.75,0],[1,0],[1,0.25],[1,0.5],[1,0.75],[1,1],[0.75,1],[0.5,1],[0.25,1],[0,1],[0,0.75],[0,0.5],[0,0.25]];outlineConnect=0;gradientColor=none;html=1;whiteSpace=wrap;fontSize=12;fontStyle=0;container=1;pointerEvents=0;collapsible=0;recursiveResize=0;shape=mxgraph.aws4.group;grIcon=mxgraph.aws4.group_aws_step_functions_workflow;strokeColor=#CD2264;fillColor=none;verticalAlign=top;align=left;spacingLeft=30;fontColor=#CD2264;dashed=0;" vertex="1" parent="1">
          <mxGeometry x="300" y="121" width="360" height="399" as="geometry" />
        </mxCell>
        <mxCell id="IjPukpcKFEV-nOy6DhyQ-93" value="" style="group" vertex="1" connectable="0" parent="IjPukpcKFEV-nOy6DhyQ-51">
          <mxGeometry x="20" y="39" width="190" height="50" as="geometry" />
        </mxCell>
        <mxCell id="IjPukpcKFEV-nOy6DhyQ-54" value="Lambda: Invoke" style="text;html=1;strokeColor=none;fillColor=none;align=left;verticalAlign=middle;whiteSpace=wrap;rounded=0;fontColor=#687078;" vertex="1" parent="IjPukpcKFEV-nOy6DhyQ-93">
          <mxGeometry x="70" y="6" width="95" height="20" as="geometry" />
        </mxCell>
        <mxCell id="IjPukpcKFEV-nOy6DhyQ-53" value="" style="rounded=1;whiteSpace=wrap;html=1;arcSize=8;imageHeight=24;strokeColor=#687078;fillColor=none;" vertex="1" parent="IjPukpcKFEV-nOy6DhyQ-93">
          <mxGeometry width="190" height="50" as="geometry" />
        </mxCell>
        <mxCell id="IjPukpcKFEV-nOy6DhyQ-55" value="IngestData" style="text;html=1;strokeColor=none;fillColor=none;align=left;verticalAlign=middle;whiteSpace=wrap;rounded=0;" vertex="1" parent="IjPukpcKFEV-nOy6DhyQ-93">
          <mxGeometry x="70" y="24" width="60" height="20" as="geometry" />
        </mxCell>
        <mxCell id="IjPukpcKFEV-nOy6DhyQ-56" style="edgeStyle=orthogonalEdgeStyle;rounded=0;orthogonalLoop=1;jettySize=auto;html=1;exitX=0.5;exitY=1;exitDx=0;exitDy=0;" edge="1" parent="IjPukpcKFEV-nOy6DhyQ-93" source="IjPukpcKFEV-nOy6DhyQ-55" target="IjPukpcKFEV-nOy6DhyQ-55">
          <mxGeometry relative="1" as="geometry" />
        </mxCell>
        <mxCell id="IjPukpcKFEV-nOy6DhyQ-52" value="" style="points=[[0,0,0],[0.25,0,0],[0.5,0,0],[0.75,0,0],[1,0,0],[0,1,0],[0.25,1,0],[0.5,1,0],[0.75,1,0],[1,1,0],[0,0.25,0],[0,0.5,0],[0,0.75,0],[1,0.25,0],[1,0.5,0],[1,0.75,0]];outlineConnect=0;fontColor=#232F3E;gradientColor=#F78E04;gradientDirection=north;fillColor=#D05C17;strokeColor=#ffffff;dashed=0;verticalLabelPosition=middle;verticalAlign=middle;align=left;html=1;fontSize=12;fontStyle=0;shape=mxgraph.aws4.resourceIcon;resIcon=mxgraph.aws4.lambda;labelPosition=right;shadow=0;spacingTop=0;metaEdit=0;aspect=fixed;" vertex="1" parent="IjPukpcKFEV-nOy6DhyQ-93">
          <mxGeometry x="10.003559999999993" width="50" height="50" as="geometry" />
        </mxCell>
        <mxCell id="IjPukpcKFEV-nOy6DhyQ-75" value="" style="group" vertex="1" connectable="0" parent="IjPukpcKFEV-nOy6DhyQ-51">
          <mxGeometry x="20" y="109" width="190" height="50" as="geometry" />
        </mxCell>
        <mxCell id="IjPukpcKFEV-nOy6DhyQ-76" value="Lambda: Invoke" style="text;html=1;strokeColor=none;fillColor=none;align=left;verticalAlign=middle;whiteSpace=wrap;rounded=0;fontColor=#687078;" vertex="1" parent="IjPukpcKFEV-nOy6DhyQ-75">
          <mxGeometry x="70" y="6" width="95" height="20" as="geometry" />
        </mxCell>
        <mxCell id="IjPukpcKFEV-nOy6DhyQ-77" value="" style="rounded=1;whiteSpace=wrap;html=1;arcSize=8;imageHeight=24;strokeColor=#687078;fillColor=none;" vertex="1" parent="IjPukpcKFEV-nOy6DhyQ-75">
          <mxGeometry width="190" height="50" as="geometry" />
        </mxCell>
        <mxCell id="IjPukpcKFEV-nOy6DhyQ-78" value="GetIngestDataStatus" style="text;html=1;strokeColor=none;fillColor=none;align=left;verticalAlign=middle;whiteSpace=wrap;rounded=0;" vertex="1" parent="IjPukpcKFEV-nOy6DhyQ-75">
          <mxGeometry x="70" y="24" width="60" height="17" as="geometry" />
        </mxCell>
        <mxCell id="IjPukpcKFEV-nOy6DhyQ-79" style="edgeStyle=orthogonalEdgeStyle;rounded=0;orthogonalLoop=1;jettySize=auto;html=1;exitX=0.5;exitY=1;exitDx=0;exitDy=0;" edge="1" parent="IjPukpcKFEV-nOy6DhyQ-75" source="IjPukpcKFEV-nOy6DhyQ-78" target="IjPukpcKFEV-nOy6DhyQ-78">
          <mxGeometry relative="1" as="geometry" />
        </mxCell>
        <mxCell id="IjPukpcKFEV-nOy6DhyQ-80" value="" style="points=[[0,0,0],[0.25,0,0],[0.5,0,0],[0.75,0,0],[1,0,0],[0,1,0],[0.25,1,0],[0.5,1,0],[0.75,1,0],[1,1,0],[0,0.25,0],[0,0.5,0],[0,0.75,0],[1,0.25,0],[1,0.5,0],[1,0.75,0]];outlineConnect=0;fontColor=#232F3E;gradientColor=#F78E04;gradientDirection=north;fillColor=#D05C17;strokeColor=#ffffff;dashed=0;verticalLabelPosition=middle;verticalAlign=middle;align=left;html=1;fontSize=12;fontStyle=0;shape=mxgraph.aws4.resourceIcon;resIcon=mxgraph.aws4.lambda;labelPosition=right;shadow=0;spacingTop=0;metaEdit=0;aspect=fixed;" vertex="1" parent="IjPukpcKFEV-nOy6DhyQ-75">
          <mxGeometry x="10.843559999999968" width="50" height="50" as="geometry" />
        </mxCell>
        <mxCell id="IjPukpcKFEV-nOy6DhyQ-94" value="" style="group" vertex="1" connectable="0" parent="IjPukpcKFEV-nOy6DhyQ-51">
          <mxGeometry x="20" y="174.5" width="190" height="50" as="geometry" />
        </mxCell>
        <mxCell id="IjPukpcKFEV-nOy6DhyQ-95" value="Lambda: Invoke" style="text;html=1;strokeColor=none;fillColor=none;align=left;verticalAlign=middle;whiteSpace=wrap;rounded=0;fontColor=#687078;" vertex="1" parent="IjPukpcKFEV-nOy6DhyQ-94">
          <mxGeometry x="70" y="6" width="95" height="20" as="geometry" />
        </mxCell>
        <mxCell id="IjPukpcKFEV-nOy6DhyQ-96" value="" style="rounded=1;whiteSpace=wrap;html=1;arcSize=8;imageHeight=24;strokeColor=#687078;fillColor=none;" vertex="1" parent="IjPukpcKFEV-nOy6DhyQ-94">
          <mxGeometry width="190" height="50" as="geometry" />
        </mxCell>
        <mxCell id="IjPukpcKFEV-nOy6DhyQ-97" value="PredictFault" style="text;html=1;strokeColor=none;fillColor=none;align=left;verticalAlign=middle;whiteSpace=wrap;rounded=0;" vertex="1" parent="IjPukpcKFEV-nOy6DhyQ-94">
          <mxGeometry x="70" y="24" width="60" height="17" as="geometry" />
        </mxCell>
        <mxCell id="IjPukpcKFEV-nOy6DhyQ-98" style="edgeStyle=orthogonalEdgeStyle;rounded=0;orthogonalLoop=1;jettySize=auto;html=1;exitX=0.5;exitY=1;exitDx=0;exitDy=0;" edge="1" parent="IjPukpcKFEV-nOy6DhyQ-94" source="IjPukpcKFEV-nOy6DhyQ-97" target="IjPukpcKFEV-nOy6DhyQ-97">
          <mxGeometry relative="1" as="geometry" />
        </mxCell>
        <mxCell id="IjPukpcKFEV-nOy6DhyQ-99" value="" style="points=[[0,0,0],[0.25,0,0],[0.5,0,0],[0.75,0,0],[1,0,0],[0,1,0],[0.25,1,0],[0.5,1,0],[0.75,1,0],[1,1,0],[0,0.25,0],[0,0.5,0],[0,0.75,0],[1,0.25,0],[1,0.5,0],[1,0.75,0]];outlineConnect=0;fontColor=#232F3E;gradientColor=#F78E04;gradientDirection=north;fillColor=#D05C17;strokeColor=#ffffff;dashed=0;verticalLabelPosition=middle;verticalAlign=middle;align=left;html=1;fontSize=12;fontStyle=0;shape=mxgraph.aws4.resourceIcon;resIcon=mxgraph.aws4.lambda;labelPosition=right;shadow=0;spacingTop=0;metaEdit=0;aspect=fixed;" vertex="1" parent="IjPukpcKFEV-nOy6DhyQ-94">
          <mxGeometry x="10.843559999999968" width="50" height="50" as="geometry" />
        </mxCell>
        <mxCell id="IjPukpcKFEV-nOy6DhyQ-100" value="" style="group" vertex="1" connectable="0" parent="IjPukpcKFEV-nOy6DhyQ-51">
          <mxGeometry x="20" y="239" width="190" height="50" as="geometry" />
        </mxCell>
        <mxCell id="IjPukpcKFEV-nOy6DhyQ-101" value="Lambda: Invoke" style="text;html=1;strokeColor=none;fillColor=none;align=left;verticalAlign=middle;whiteSpace=wrap;rounded=0;fontColor=#687078;" vertex="1" parent="IjPukpcKFEV-nOy6DhyQ-100">
          <mxGeometry x="70" y="6" width="95" height="20" as="geometry" />
        </mxCell>
        <mxCell id="IjPukpcKFEV-nOy6DhyQ-102" value="" style="rounded=1;whiteSpace=wrap;html=1;arcSize=8;imageHeight=24;strokeColor=#687078;fillColor=none;" vertex="1" parent="IjPukpcKFEV-nOy6DhyQ-100">
          <mxGeometry width="190" height="50" as="geometry" />
        </mxCell>
        <mxCell id="IjPukpcKFEV-nOy6DhyQ-103" value="GetPredictFaultStatus" style="text;html=1;strokeColor=none;fillColor=none;align=left;verticalAlign=middle;whiteSpace=wrap;rounded=0;" vertex="1" parent="IjPukpcKFEV-nOy6DhyQ-100">
          <mxGeometry x="70" y="24" width="60" height="17" as="geometry" />
        </mxCell>
        <mxCell id="IjPukpcKFEV-nOy6DhyQ-104" style="edgeStyle=orthogonalEdgeStyle;rounded=0;orthogonalLoop=1;jettySize=auto;html=1;exitX=0.5;exitY=1;exitDx=0;exitDy=0;" edge="1" parent="IjPukpcKFEV-nOy6DhyQ-100" source="IjPukpcKFEV-nOy6DhyQ-103" target="IjPukpcKFEV-nOy6DhyQ-103">
          <mxGeometry relative="1" as="geometry" />
        </mxCell>
        <mxCell id="IjPukpcKFEV-nOy6DhyQ-105" value="" style="points=[[0,0,0],[0.25,0,0],[0.5,0,0],[0.75,0,0],[1,0,0],[0,1,0],[0.25,1,0],[0.5,1,0],[0.75,1,0],[1,1,0],[0,0.25,0],[0,0.5,0],[0,0.75,0],[1,0.25,0],[1,0.5,0],[1,0.75,0]];outlineConnect=0;fontColor=#232F3E;gradientColor=#F78E04;gradientDirection=north;fillColor=#D05C17;strokeColor=#ffffff;dashed=0;verticalLabelPosition=middle;verticalAlign=middle;align=left;html=1;fontSize=12;fontStyle=0;shape=mxgraph.aws4.resourceIcon;resIcon=mxgraph.aws4.lambda;labelPosition=right;shadow=0;spacingTop=0;metaEdit=0;aspect=fixed;" vertex="1" parent="IjPukpcKFEV-nOy6DhyQ-100">
          <mxGeometry x="10.843559999999968" width="50" height="50" as="geometry" />
        </mxCell>
        <mxCell id="IjPukpcKFEV-nOy6DhyQ-106" value="" style="group" vertex="1" connectable="0" parent="IjPukpcKFEV-nOy6DhyQ-51">
          <mxGeometry x="20" y="299" width="190" height="50" as="geometry" />
        </mxCell>
        <mxCell id="IjPukpcKFEV-nOy6DhyQ-107" value="Lambda: Invoke" style="text;html=1;strokeColor=none;fillColor=none;align=left;verticalAlign=middle;whiteSpace=wrap;rounded=0;fontColor=#687078;" vertex="1" parent="IjPukpcKFEV-nOy6DhyQ-106">
          <mxGeometry x="70" y="6" width="95" height="20" as="geometry" />
        </mxCell>
        <mxCell id="IjPukpcKFEV-nOy6DhyQ-108" value="" style="rounded=1;whiteSpace=wrap;html=1;arcSize=8;imageHeight=24;strokeColor=#687078;fillColor=none;" vertex="1" parent="IjPukpcKFEV-nOy6DhyQ-106">
          <mxGeometry width="190" height="50" as="geometry" />
        </mxCell>
        <mxCell id="IjPukpcKFEV-nOy6DhyQ-109" value="GetPredictFaultStatus" style="text;html=1;strokeColor=none;fillColor=none;align=left;verticalAlign=middle;whiteSpace=wrap;rounded=0;" vertex="1" parent="IjPukpcKFEV-nOy6DhyQ-106">
          <mxGeometry x="70" y="24" width="60" height="17" as="geometry" />
        </mxCell>
        <mxCell id="IjPukpcKFEV-nOy6DhyQ-110" style="edgeStyle=orthogonalEdgeStyle;rounded=0;orthogonalLoop=1;jettySize=auto;html=1;exitX=0.5;exitY=1;exitDx=0;exitDy=0;" edge="1" parent="IjPukpcKFEV-nOy6DhyQ-106" source="IjPukpcKFEV-nOy6DhyQ-109" target="IjPukpcKFEV-nOy6DhyQ-109">
          <mxGeometry relative="1" as="geometry" />
        </mxCell>
        <mxCell id="IjPukpcKFEV-nOy6DhyQ-111" value="" style="points=[[0,0,0],[0.25,0,0],[0.5,0,0],[0.75,0,0],[1,0,0],[0,1,0],[0.25,1,0],[0.5,1,0],[0.75,1,0],[1,1,0],[0,0.25,0],[0,0.5,0],[0,0.75,0],[1,0.25,0],[1,0.5,0],[1,0.75,0]];outlineConnect=0;fontColor=#232F3E;gradientColor=#F78E04;gradientDirection=north;fillColor=#D05C17;strokeColor=#ffffff;dashed=0;verticalLabelPosition=middle;verticalAlign=middle;align=left;html=1;fontSize=12;fontStyle=0;shape=mxgraph.aws4.resourceIcon;resIcon=mxgraph.aws4.lambda;labelPosition=right;shadow=0;spacingTop=0;metaEdit=0;aspect=fixed;" vertex="1" parent="IjPukpcKFEV-nOy6DhyQ-106">
          <mxGeometry x="10.843559999999968" width="50" height="50" as="geometry" />
        </mxCell>
        <mxCell id="IjPukpcKFEV-nOy6DhyQ-58" value="" style="html=1;verticalLabelPosition=bottom;align=center;labelBackgroundColor=#ffffff;verticalAlign=top;strokeWidth=2;strokeColor=#0080F0;shadow=0;dashed=0;shape=mxgraph.ios7.icons.clock;fillColor=default;" vertex="1" parent="1">
          <mxGeometry x="390" y="850" width="30" height="30" as="geometry" />
        </mxCell>
        <mxCell id="IjPukpcKFEV-nOy6DhyQ-86" value="" style="html=1;verticalLabelPosition=bottom;align=center;labelBackgroundColor=#ffffff;verticalAlign=top;strokeWidth=2;strokeColor=#0080F0;shadow=0;dashed=0;shape=mxgraph.ios7.icons.alarm_clock;" vertex="1" parent="1">
          <mxGeometry x="320" y="880" width="27" height="30" as="geometry" />
        </mxCell>
        <mxCell id="IjPukpcKFEV-nOy6DhyQ-92" value="" style="group" vertex="1" connectable="0" parent="1">
          <mxGeometry x="420" y="660" width="190" height="50" as="geometry" />
        </mxCell>
        <mxCell id="IjPukpcKFEV-nOy6DhyQ-70" value="" style="rounded=1;whiteSpace=wrap;html=1;arcSize=8;imageHeight=24;strokeColor=#687078;fillColor=none;" vertex="1" parent="IjPukpcKFEV-nOy6DhyQ-92">
          <mxGeometry width="190" height="50" as="geometry" />
        </mxCell>
        <mxCell id="IjPukpcKFEV-nOy6DhyQ-88" value="" style="group" vertex="1" connectable="0" parent="IjPukpcKFEV-nOy6DhyQ-92">
          <mxGeometry x="10" y="1" width="48" height="48" as="geometry" />
        </mxCell>
        <mxCell id="IjPukpcKFEV-nOy6DhyQ-82" value="" style="rounded=0;whiteSpace=wrap;html=1;fillColor=#fafafa;fontColor=#333333;strokeColor=#d5dbdb;" vertex="1" parent="IjPukpcKFEV-nOy6DhyQ-88">
          <mxGeometry width="48" height="48" as="geometry" />
        </mxCell>
        <mxCell id="IjPukpcKFEV-nOy6DhyQ-87" value="" style="html=1;verticalLabelPosition=bottom;align=center;labelBackgroundColor=#ffffff;verticalAlign=top;strokeWidth=2;strokeColor=#0080F0;shadow=0;dashed=0;shape=mxgraph.ios7.icons.stopwatch;" vertex="1" parent="IjPukpcKFEV-nOy6DhyQ-88">
          <mxGeometry x="11.04" y="10.463999999999977" width="25.92" height="27.072" as="geometry" />
        </mxCell>
        <mxCell id="IjPukpcKFEV-nOy6DhyQ-81" value="" style="group" vertex="1" connectable="0" parent="IjPukpcKFEV-nOy6DhyQ-92">
          <mxGeometry x="70" y="7.5" width="95" height="35" as="geometry" />
        </mxCell>
        <mxCell id="IjPukpcKFEV-nOy6DhyQ-69" value="Wait state" style="text;html=1;strokeColor=none;fillColor=none;align=left;verticalAlign=middle;whiteSpace=wrap;rounded=0;fontColor=#687078;" vertex="1" parent="IjPukpcKFEV-nOy6DhyQ-81">
          <mxGeometry width="95" height="20" as="geometry" />
        </mxCell>
        <mxCell id="IjPukpcKFEV-nOy6DhyQ-71" value="WaitForIngestData" style="text;html=1;strokeColor=none;fillColor=none;align=left;verticalAlign=middle;whiteSpace=wrap;rounded=0;" vertex="1" parent="IjPukpcKFEV-nOy6DhyQ-81">
          <mxGeometry y="18" width="60" height="17" as="geometry" />
        </mxCell>
        <mxCell id="IjPukpcKFEV-nOy6DhyQ-72" style="edgeStyle=orthogonalEdgeStyle;rounded=0;orthogonalLoop=1;jettySize=auto;html=1;exitX=0.5;exitY=1;exitDx=0;exitDy=0;" edge="1" parent="IjPukpcKFEV-nOy6DhyQ-81" source="IjPukpcKFEV-nOy6DhyQ-71" target="IjPukpcKFEV-nOy6DhyQ-71">
          <mxGeometry relative="1" as="geometry" />
        </mxCell>
        <mxCell id="IjPukpcKFEV-nOy6DhyQ-112" value="" style="shape=image;imageAspect=0;aspect=fixed;verticalLabelPosition=bottom;verticalAlign=top;image=data:image/svg+xml,PHN2ZyB4bWxucz0iaHR0cDovL3d3dy53My5vcmcvMjAwMC9zdmciIGhlaWdodD0iMTE3MCIgd2lkdGg9IjEzMzYiIGFyaWEtbGFiZWxsZWRieT0icG9seW1hdGgtZ3JhcGgtdGl0bGUiIHJvbGU9ImltZyIgZGF0YS10ZXN0aWQ9ImdyYXBoIiBjbGFzcz0ic2MtaEtkbm5MIGRtZkxLciBncmFwaCIgdmlld0JveD0iMCAwIDEzMzYgMTE3MCI+JiN4YTs8dGl0bGUgaWQ9InBvbHltYXRoLWdyYXBoLXRpdGxlIj5Xb3JrZmxvdyBTdHVkaW8gU3RhdGUgTWFjaGluZSBHcmFwaDwvdGl0bGU+JiN4YTs8ZyBjbGFzcz0ibmV3LWxvb2stZ3JhcGgiIHRyYW5zZm9ybT0idHJhbnNsYXRlKDEyLDEyKSI+JiN4YTs8ZyBjbGFzcz0ibm9kZXMiPiYjeGE7PGcgdHJhbnNmb3JtPSJ0cmFuc2xhdGUoODYxLDIyKSIgY2xhc3M9Im5vZGUtY29udGFpbmVyIj4mI3hhOzxnPiYjeGE7PGNpcmNsZSByPSIyMiIgY2xhc3M9InNjLWdVQUVNQyBuZGRDIHNoYXBlIi8+JiN4YTs8dGV4dCBjbGFzcz0ic2MtaGpyaVBiIGtqa1NPWSBsYWJlbCI+JiN4YTs8dHNwYW4gYWxpZ25tZW50LWJhc2VsaW5lPSJjZW50cmFsIiB0ZXh0LWFuY2hvcj0ibWlkZGxlIiB4bWw6c3BhY2U9InByZXNlcnZlIj5TdGFydDwvdHNwYW4+JiN4YTs8L3RleHQ+JiN4YTs8L2c+JiN4YTs8L2c+JiN4YTs8ZyB0cmFuc2Zvcm09InRyYW5zbGF0ZSg4NjEsMTAzLjUpIiBjbGFzcz0ibm9kZS1jb250YWluZXIiPiYjeGE7PGcgZGF0YS1zdGF0ZS10eXBlPSJUYXNrIiBkYXRhLXN0YXRlLWlkPSJJbmdlc3REYXRhIiBkYXRhLXRlc3RpZD0iZ3JhcGgtSW5nZXN0RGF0YSIgY2xhc3M9InNjLXllb0lqIGdUWVNWRiBub2RlIHN0YXRlIFRhc2siPiYjeGE7PGcgY2xhc3M9Im5ldy1sb29rLXN0YXRlLW5vZGUiPiYjeGE7PHJlY3Qgcnk9IjMiIHJ4PSIzIiBoZWlnaHQ9IjQ5IiB3aWR0aD0iMjQwIiB5PSItMjQuNSIgeD0iLTEyMCIvPiYjeGE7PGcgdHJhbnNmb3JtPSJ0cmFuc2xhdGUoLTEyMCwtMjQuNSkiIGNsYXNzPSJoYW5kbGUiPiYjeGE7PHBhdGggZD0iTTUsMTYgTDUsMzQgTTgsMTYgTDgsMzQiLz4mI3hhOzwvZz4mI3hhOzxnIHRyYW5zZm9ybT0idHJhbnNsYXRlKC0xMDQsLTI0KSIgY2xhc3M9Imljb24iPiYjeGE7PHJlY3QgaGVpZ2h0PSI0OCIgd2lkdGg9IjQ4IiB5PSIwLjAxODEyOTE5NjciIHg9IjAuMDM2MTAyNjEwOCIgZmlsbD0idmFyKC0tY29sb3ItYmFja2dyb3VuZC1jb250YWluZXItaGVhZGVyLWc5cmcwaiwgI2ZhZmFmYSkiLz4mI3hhOzxsaW5lIHN0cm9rZS1saW5lY2FwPSJzcXVhcmUiIHN0cm9rZT0idmFyKC0tY29sb3ItdGV4dC1ob21lLWhlYWRlci1zZWNvbmRhcnktZzVycWU0LCAjZDVkYmRiKSIgeTI9IjQ3LjUiIHgyPSI0Ny41IiB5MT0iMC40OTEyMjgwNyIgeDE9IjQ3LjUiLz4mI3hhOzxsaW5lIHN0cm9rZS1saW5lY2FwPSJzcXVhcmUiIHN0cm9rZT0idmFyKC0tY29sb3ItdGV4dC1ob21lLWhlYWRlci1zZWNvbmRhcnktZzVycWU0LCAjZDVkYmRiKSIgeTI9IjQ3LjUiIHgyPSIwLjUiIHkxPSIwLjQ5MTIyODA3IiB4MT0iMC41Ii8+JiN4YTs8dXNlIGhyZWY9IiNpY29uLXNlcnZpY2UtbGFtIj4mI3hhOzx0aXRsZT5MYW1iZGE8L3RpdGxlPiYjeGE7PC91c2U+JiN4YTs8L2c+JiN4YTs8ZyB0cmFuc2Zvcm09InRyYW5zbGF0ZSgtNDgsLTI0LjUpIiBjbGFzcz0idGV4dC1saW5lcyI+JiN4YTs8dGV4dCBjbGFzcz0ibGluZTEiIHRyYW5zZm9ybT0idHJhbnNsYXRlKDAsMTcpIj4mI3hhOzx0c3BhbiB0ZXh0LWFuY2hvcj0ic3RhcnQiIHhtbDpzcGFjZT0icHJlc2VydmUiPkxhbWJkYTogSW52b2tlPC90c3Bhbj4mI3hhOzwvdGV4dD4mI3hhOzx0ZXh0IGNsYXNzPSJsaW5lMiBsYWJlbCIgdHJhbnNmb3JtPSJ0cmFuc2xhdGUoMCwzNS41KSI+JiN4YTs8dHNwYW4gdGV4dC1hbmNob3I9InN0YXJ0IiB4bWw6c3BhY2U9InByZXNlcnZlIj5Jbmdlc3REYXRhPC90c3Bhbj4mI3hhOzwvdGV4dD4mI3hhOzwvZz4mI3hhOzwvZz4mI3hhOzwvZz4mI3hhOzwvZz4mI3hhOzxnIHRyYW5zZm9ybT0idHJhbnNsYXRlKDc4My41LDE4Ny41KSIgY2xhc3M9Im5vZGUtY29udGFpbmVyIj4mI3hhOzxnIGRhdGEtc3RhdGUtdHlwZT0iV2FpdCIgZGF0YS1zdGF0ZS1pZD0iV2FpdEZvckluZ2VzdERhdGEiIGRhdGEtdGVzdGlkPSJncmFwaC1XYWl0Rm9ySW5nZXN0RGF0YSIgY2xhc3M9InNjLXllb0lqIGdUWVNWRiBub2RlIHN0YXRlIFdhaXQiPiYjeGE7PGcgY2xhc3M9Im5ldy1sb29rLXN0YXRlLW5vZGUiPiYjeGE7PHJlY3Qgcnk9IjMiIHJ4PSIzIiBoZWlnaHQ9IjQ5IiB3aWR0aD0iMjQwIiB5PSItMjQuNSIgeD0iLTEyMCIvPiYjeGE7PGcgdHJhbnNmb3JtPSJ0cmFuc2xhdGUoLTEyMCwtMjQuNSkiIGNsYXNzPSJoYW5kbGUiPiYjeGE7PHBhdGggZD0iTTUsMTYgTDUsMzQgTTgsMTYgTDgsMzQiLz4mI3hhOzwvZz4mI3hhOzxnIHRyYW5zZm9ybT0idHJhbnNsYXRlKC0xMDQsLTI0KSIgY2xhc3M9Imljb24iPiYjeGE7PHJlY3QgaGVpZ2h0PSI0OCIgd2lkdGg9IjQ4IiB5PSIwLjAxODEyOTE5NjciIHg9IjAuMDM2MTAyNjEwOCIgZmlsbD0idmFyKC0tY29sb3ItYmFja2dyb3VuZC1jb250YWluZXItaGVhZGVyLWc5cmcwaiwgI2ZhZmFmYSkiLz4mI3hhOzxsaW5lIHN0cm9rZS1saW5lY2FwPSJzcXVhcmUiIHN0cm9rZT0idmFyKC0tY29sb3ItdGV4dC1ob21lLWhlYWRlci1zZWNvbmRhcnktZzVycWU0LCAjZDVkYmRiKSIgeTI9IjQ3LjUiIHgyPSI0Ny41IiB5MT0iMC40OTEyMjgwNyIgeDE9IjQ3LjUiLz4mI3hhOzxsaW5lIHN0cm9rZS1saW5lY2FwPSJzcXVhcmUiIHN0cm9rZT0idmFyKC0tY29sb3ItdGV4dC1ob21lLWhlYWRlci1zZWNvbmRhcnktZzVycWU0LCAjZDVkYmRiKSIgeTI9IjQ3LjUiIHgyPSIwLjUiIHkxPSIwLjQ5MTIyODA3IiB4MT0iMC41Ii8+JiN4YTs8dXNlIGhyZWY9IiNpY29uLWZsb3ctd2FpdCIvPiYjeGE7PC9nPiYjeGE7PGcgdHJhbnNmb3JtPSJ0cmFuc2xhdGUoLTQ4LC0yNC41KSIgY2xhc3M9InRleHQtbGluZXMiPiYjeGE7PHRleHQgY2xhc3M9ImxpbmUxIiB0cmFuc2Zvcm09InRyYW5zbGF0ZSgwLDE3KSI+JiN4YTs8dHNwYW4gdGV4dC1hbmNob3I9InN0YXJ0IiB4bWw6c3BhY2U9InByZXNlcnZlIj5XYWl0IHN0YXRlPC90c3Bhbj4mI3hhOzwvdGV4dD4mI3hhOzx0ZXh0IGNsYXNzPSJsaW5lMiBsYWJlbCIgdHJhbnNmb3JtPSJ0cmFuc2xhdGUoMCwzNS41KSI+JiN4YTs8dHNwYW4gdGV4dC1hbmNob3I9InN0YXJ0IiB4bWw6c3BhY2U9InByZXNlcnZlIj5XYWl0Rm9ySW5nZXN0RGF0YTwvdHNwYW4+JiN4YTs8L3RleHQ+JiN4YTs8L2c+JiN4YTs8L2c+JiN4YTs8L2c+JiN4YTs8L2c+JiN4YTs8ZyB0cmFuc2Zvcm09InRyYW5zbGF0ZSg4MTIsOTU4LjUpIiBjbGFzcz0ibm9kZS1jb250YWluZXIiPiYjeGE7PGcgZGF0YS1zdGF0ZS10eXBlPSJUYXNrIiBkYXRhLXN0YXRlLWlkPSJOb3RpZnlGYWlsdXJlIiBkYXRhLXRlc3RpZD0iZ3JhcGgtTm90aWZ5RmFpbHVyZSIgY2xhc3M9InNjLXllb0lqIGdUWVNWRiBub2RlIHN0YXRlIFRhc2siPiYjeGE7PGcgY2xhc3M9Im5ldy1sb29rLXN0YXRlLW5vZGUiPiYjeGE7PHJlY3Qgcnk9IjMiIHJ4PSIzIiBoZWlnaHQ9IjQ5IiB3aWR0aD0iMjQwIiB5PSItMjQuNSIgeD0iLTEyMCIvPiYjeGE7PGcgdHJhbnNmb3JtPSJ0cmFuc2xhdGUoLTEyMCwtMjQuNSkiIGNsYXNzPSJoYW5kbGUiPiYjeGE7PHBhdGggZD0iTTUsMTYgTDUsMzQgTTgsMTYgTDgsMzQiLz4mI3hhOzwvZz4mI3hhOzxnIHRyYW5zZm9ybT0idHJhbnNsYXRlKC0xMDQsLTI0KSIgY2xhc3M9Imljb24iPiYjeGE7PHJlY3QgaGVpZ2h0PSI0OCIgd2lkdGg9IjQ4IiB5PSIwLjAxODEyOTE5NjciIHg9IjAuMDM2MTAyNjEwOCIgZmlsbD0idmFyKC0tY29sb3ItYmFja2dyb3VuZC1jb250YWluZXItaGVhZGVyLWc5cmcwaiwgI2ZhZmFmYSkiLz4mI3hhOzxsaW5lIHN0cm9rZS1saW5lY2FwPSJzcXVhcmUiIHN0cm9rZT0idmFyKC0tY29sb3ItdGV4dC1ob21lLWhlYWRlci1zZWNvbmRhcnktZzVycWU0LCAjZDVkYmRiKSIgeTI9IjQ3LjUiIHgyPSI0Ny41IiB5MT0iMC40OTEyMjgwNyIgeDE9IjQ3LjUiLz4mI3hhOzxsaW5lIHN0cm9rZS1saW5lY2FwPSJzcXVhcmUiIHN0cm9rZT0idmFyKC0tY29sb3ItdGV4dC1ob21lLWhlYWRlci1zZWNvbmRhcnktZzVycWU0LCAjZDVkYmRiKSIgeTI9IjQ3LjUiIHgyPSIwLjUiIHkxPSIwLjQ5MTIyODA3IiB4MT0iMC41Ii8+JiN4YTs8dXNlIGhyZWY9IiNpY29uLXNlcnZpY2UtbGFtIj4mI3hhOzx0aXRsZT5MYW1iZGE8L3RpdGxlPiYjeGE7PC91c2U+JiN4YTs8L2c+JiN4YTs8ZyB0cmFuc2Zvcm09InRyYW5zbGF0ZSgtNDgsLTI0LjUpIiBjbGFzcz0idGV4dC1saW5lcyI+JiN4YTs8dGV4dCBjbGFzcz0ibGluZTEiIHRyYW5zZm9ybT0idHJhbnNsYXRlKDAsMTcpIj4mI3hhOzx0c3BhbiB0ZXh0LWFuY2hvcj0ic3RhcnQiIHhtbDpzcGFjZT0icHJlc2VydmUiPkxhbWJkYTogSW52b2tlPC90c3Bhbj4mI3hhOzwvdGV4dD4mI3hhOzx0ZXh0IGNsYXNzPSJsaW5lMiBsYWJlbCIgdHJhbnNmb3JtPSJ0cmFuc2xhdGUoMCwzNS41KSI+JiN4YTs8dHNwYW4gdGV4dC1hbmNob3I9InN0YXJ0IiB4bWw6c3BhY2U9InByZXNlcnZlIj5Ob3RpZnlGYWlsdXJlPC90c3Bhbj4mI3hhOzwvdGV4dD4mI3hhOzwvZz4mI3hhOzwvZz4mI3hhOzwvZz4mI3hhOzwvZz4mI3hhOzxnIHRyYW5zZm9ybT0idHJhbnNsYXRlKDcwNiwyNzEuNSkiIGNsYXNzPSJub2RlLWNvbnRhaW5lciI+JiN4YTs8ZyBkYXRhLXN0YXRlLXR5cGU9IlRhc2siIGRhdGEtc3RhdGUtaWQ9IkdldEluZ2VzdERhdGFTdGF0dXMiIGRhdGEtdGVzdGlkPSJncmFwaC1HZXRJbmdlc3REYXRhU3RhdHVzIiBjbGFzcz0ic2MteWVvSWogZ1RZU1ZGIG5vZGUgc3RhdGUgVGFzayI+JiN4YTs8ZyBjbGFzcz0ibmV3LWxvb2stc3RhdGUtbm9kZSI+JiN4YTs8cmVjdCByeT0iMyIgcng9IjMiIGhlaWdodD0iNDkiIHdpZHRoPSIyNDAiIHk9Ii0yNC41IiB4PSItMTIwIi8+JiN4YTs8ZyB0cmFuc2Zvcm09InRyYW5zbGF0ZSgtMTIwLC0yNC41KSIgY2xhc3M9ImhhbmRsZSI+JiN4YTs8cGF0aCBkPSJNNSwxNiBMNSwzNCBNOCwxNiBMOCwzNCIvPiYjeGE7PC9nPiYjeGE7PGcgdHJhbnNmb3JtPSJ0cmFuc2xhdGUoLTEwNCwtMjQpIiBjbGFzcz0iaWNvbiI+JiN4YTs8cmVjdCBoZWlnaHQ9IjQ4IiB3aWR0aD0iNDgiIHk9IjAuMDE4MTI5MTk2NyIgeD0iMC4wMzYxMDI2MTA4IiBmaWxsPSJ2YXIoLS1jb2xvci1iYWNrZ3JvdW5kLWNvbnRhaW5lci1oZWFkZXItZzlyZzBqLCAjZmFmYWZhKSIvPiYjeGE7PGxpbmUgc3Ryb2tlLWxpbmVjYXA9InNxdWFyZSIgc3Ryb2tlPSJ2YXIoLS1jb2xvci10ZXh0LWhvbWUtaGVhZGVyLXNlY29uZGFyeS1nNXJxZTQsICNkNWRiZGIpIiB5Mj0iNDcuNSIgeDI9IjQ3LjUiIHkxPSIwLjQ5MTIyODA3IiB4MT0iNDcuNSIvPiYjeGE7PGxpbmUgc3Ryb2tlLWxpbmVjYXA9InNxdWFyZSIgc3Ryb2tlPSJ2YXIoLS1jb2xvci10ZXh0LWhvbWUtaGVhZGVyLXNlY29uZGFyeS1nNXJxZTQsICNkNWRiZGIpIiB5Mj0iNDcuNSIgeDI9IjAuNSIgeTE9IjAuNDkxMjI4MDciIHgxPSIwLjUiLz4mI3hhOzx1c2UgaHJlZj0iI2ljb24tc2VydmljZS1sYW0iPiYjeGE7PHRpdGxlPkxhbWJkYTwvdGl0bGU+JiN4YTs8L3VzZT4mI3hhOzwvZz4mI3hhOzxnIHRyYW5zZm9ybT0idHJhbnNsYXRlKC00OCwtMjQuNSkiIGNsYXNzPSJ0ZXh0LWxpbmVzIj4mI3hhOzx0ZXh0IGNsYXNzPSJsaW5lMSIgdHJhbnNmb3JtPSJ0cmFuc2xhdGUoMCwxNykiPiYjeGE7PHRzcGFuIHRleHQtYW5jaG9yPSJzdGFydCIgeG1sOnNwYWNlPSJwcmVzZXJ2ZSI+TGFtYmRhOiBJbnZva2U8L3RzcGFuPiYjeGE7PC90ZXh0PiYjeGE7PHRleHQgY2xhc3M9ImxpbmUyIGxhYmVsIiB0cmFuc2Zvcm09InRyYW5zbGF0ZSgwLDM1LjUpIj4mI3hhOzx0c3BhbiB0ZXh0LWFuY2hvcj0ic3RhcnQiIHhtbDpzcGFjZT0icHJlc2VydmUiPkdldEluZ2VzdERhdGFTdGF0dXM8L3RzcGFuPiYjeGE7PC90ZXh0PiYjeGE7PC9nPiYjeGE7PC9nPiYjeGE7PC9nPiYjeGE7PC9nPiYjeGE7PGcgdHJhbnNmb3JtPSJ0cmFuc2xhdGUoNjA5LDM1NS41KSIgY2xhc3M9Im5vZGUtY29udGFpbmVyIj4mI3hhOzxnIGRhdGEtc3RhdGUtdHlwZT0iQ2hvaWNlIiBkYXRhLXN0YXRlLWlkPSJDaGVja0luZ2VzdERhdGFTdGF0dXMiIGRhdGEtdGVzdGlkPSJncmFwaC1DaGVja0luZ2VzdERhdGFTdGF0dXMiIGNsYXNzPSJzYy15ZW9JaiBnVFlTVkYgbm9kZSBzdGF0ZSBDaG9pY2UiPiYjeGE7PGcgY2xhc3M9Im5ldy1sb29rLXN0YXRlLW5vZGUiPiYjeGE7PHJlY3Qgcnk9IjMiIHJ4PSIzIiBoZWlnaHQ9IjQ5IiB3aWR0aD0iMjQwIiB5PSItMjQuNSIgeD0iLTEyMCIvPiYjeGE7PGcgdHJhbnNmb3JtPSJ0cmFuc2xhdGUoLTEyMCwtMjQuNSkiIGNsYXNzPSJoYW5kbGUiPiYjeGE7PHBhdGggZD0iTTUsMTYgTDUsMzQgTTgsMTYgTDgsMzQiLz4mI3hhOzwvZz4mI3hhOzxnIHRyYW5zZm9ybT0idHJhbnNsYXRlKC0xMDQsLTI0KSIgY2xhc3M9Imljb24iPiYjeGE7PHJlY3QgaGVpZ2h0PSI0OCIgd2lkdGg9IjQ4IiB5PSIwLjAxODEyOTE5NjciIHg9IjAuMDM2MTAyNjEwOCIgZmlsbD0idmFyKC0tY29sb3ItYmFja2dyb3VuZC1jb250YWluZXItaGVhZGVyLWc5cmcwaiwgI2ZhZmFmYSkiLz4mI3hhOzxsaW5lIHN0cm9rZS1saW5lY2FwPSJzcXVhcmUiIHN0cm9rZT0idmFyKC0tY29sb3ItdGV4dC1ob21lLWhlYWRlci1zZWNvbmRhcnktZzVycWU0LCAjZDVkYmRiKSIgeTI9IjQ3LjUiIHgyPSI0Ny41IiB5MT0iMC40OTEyMjgwNyIgeDE9IjQ3LjUiLz4mI3hhOzxsaW5lIHN0cm9rZS1saW5lY2FwPSJzcXVhcmUiIHN0cm9rZT0idmFyKC0tY29sb3ItdGV4dC1ob21lLWhlYWRlci1zZWNvbmRhcnktZzVycWU0LCAjZDVkYmRiKSIgeTI9IjQ3LjUiIHgyPSIwLjUiIHkxPSIwLjQ5MTIyODA3IiB4MT0iMC41Ii8+JiN4YTs8dXNlIGhyZWY9IiNpY29uLWZsb3ctY2hvaWNlIi8+JiN4YTs8L2c+JiN4YTs8ZyB0cmFuc2Zvcm09InRyYW5zbGF0ZSgtNDgsLTI0LjUpIiBjbGFzcz0idGV4dC1saW5lcyI+JiN4YTs8dGV4dCBjbGFzcz0ibGluZTEiIHRyYW5zZm9ybT0idHJhbnNsYXRlKDAsMTcpIj4mI3hhOzx0c3BhbiB0ZXh0LWFuY2hvcj0ic3RhcnQiIHhtbDpzcGFjZT0icHJlc2VydmUiPkNob2ljZSBzdGF0ZTwvdHNwYW4+JiN4YTs8L3RleHQ+JiN4YTs8dGV4dCBjbGFzcz0ibGluZTIgbGFiZWwiIHRyYW5zZm9ybT0idHJhbnNsYXRlKDAsMzUuNSkiPiYjeGE7PHRzcGFuIHRleHQtYW5jaG9yPSJzdGFydCIgeG1sOnNwYWNlPSJwcmVzZXJ2ZSI+Q2hlY2tJbmdlc3REYXRhU3RhdHVzPC90c3Bhbj4mI3hhOzwvdGV4dD4mI3hhOzwvZz4mI3hhOzwvZz4mI3hhOzwvZz4mI3hhOzwvZz4mI3hhOzxnIHRyYW5zZm9ybT0idHJhbnNsYXRlKDUwMCw0NTYpIiBjbGFzcz0ibm9kZS1jb250YWluZXIiPiYjeGE7PGcgZGF0YS1zdGF0ZS10eXBlPSJUYXNrIiBkYXRhLXN0YXRlLWlkPSJQcmVkaWN0RmF1bHQiIGRhdGEtdGVzdGlkPSJncmFwaC1QcmVkaWN0RmF1bHQiIGNsYXNzPSJzYy15ZW9JaiBnVFlTVkYgbm9kZSBzdGF0ZSBUYXNrIj4mI3hhOzxnIGNsYXNzPSJuZXctbG9vay1zdGF0ZS1ub2RlIj4mI3hhOzxyZWN0IHJ5PSIzIiByeD0iMyIgaGVpZ2h0PSI0OSIgd2lkdGg9IjI0MCIgeT0iLTI0LjUiIHg9Ii0xMjAiLz4mI3hhOzxnIHRyYW5zZm9ybT0idHJhbnNsYXRlKC0xMjAsLTI0LjUpIiBjbGFzcz0iaGFuZGxlIj4mI3hhOzxwYXRoIGQ9Ik01LDE2IEw1LDM0IE04LDE2IEw4LDM0Ii8+JiN4YTs8L2c+JiN4YTs8ZyB0cmFuc2Zvcm09InRyYW5zbGF0ZSgtMTA0LC0yNCkiIGNsYXNzPSJpY29uIj4mI3hhOzxyZWN0IGhlaWdodD0iNDgiIHdpZHRoPSI0OCIgeT0iMC4wMTgxMjkxOTY3IiB4PSIwLjAzNjEwMjYxMDgiIGZpbGw9InZhcigtLWNvbG9yLWJhY2tncm91bmQtY29udGFpbmVyLWhlYWRlci1nOXJnMGosICNmYWZhZmEpIi8+JiN4YTs8bGluZSBzdHJva2UtbGluZWNhcD0ic3F1YXJlIiBzdHJva2U9InZhcigtLWNvbG9yLXRleHQtaG9tZS1oZWFkZXItc2Vjb25kYXJ5LWc1cnFlNCwgI2Q1ZGJkYikiIHkyPSI0Ny41IiB4Mj0iNDcuNSIgeTE9IjAuNDkxMjI4MDciIHgxPSI0Ny41Ii8+JiN4YTs8bGluZSBzdHJva2UtbGluZWNhcD0ic3F1YXJlIiBzdHJva2U9InZhcigtLWNvbG9yLXRleHQtaG9tZS1oZWFkZXItc2Vjb25kYXJ5LWc1cnFlNCwgI2Q1ZGJkYikiIHkyPSI0Ny41IiB4Mj0iMC41IiB5MT0iMC40OTEyMjgwNyIgeDE9IjAuNSIvPiYjeGE7PHVzZSBocmVmPSIjaWNvbi1zZXJ2aWNlLWxhbSI+JiN4YTs8dGl0bGU+TGFtYmRhPC90aXRsZT4mI3hhOzwvdXNlPiYjeGE7PC9nPiYjeGE7PGcgdHJhbnNmb3JtPSJ0cmFuc2xhdGUoLTQ4LC0yNC41KSIgY2xhc3M9InRleHQtbGluZXMiPiYjeGE7PHRleHQgY2xhc3M9ImxpbmUxIiB0cmFuc2Zvcm09InRyYW5zbGF0ZSgwLDE3KSI+JiN4YTs8dHNwYW4gdGV4dC1hbmNob3I9InN0YXJ0IiB4bWw6c3BhY2U9InByZXNlcnZlIj5MYW1iZGE6IEludm9rZTwvdHNwYW4+JiN4YTs8L3RleHQ+JiN4YTs8dGV4dCBjbGFzcz0ibGluZTIgbGFiZWwiIHRyYW5zZm9ybT0idHJhbnNsYXRlKDAsMzUuNSkiPiYjeGE7PHRzcGFuIHRleHQtYW5jaG9yPSJzdGFydCIgeG1sOnNwYWNlPSJwcmVzZXJ2ZSI+UHJlZGljdEZhdWx0PC90c3Bhbj4mI3hhOzwvdGV4dD4mI3hhOzwvZz4mI3hhOzwvZz4mI3hhOzwvZz4mI3hhOzwvZz4mI3hhOzxnIHRyYW5zZm9ybT0idHJhbnNsYXRlKDQyMi41LDU1Ni41KSIgY2xhc3M9Im5vZGUtY29udGFpbmVyIj4mI3hhOzxnIGRhdGEtc3RhdGUtdHlwZT0iV2FpdCIgZGF0YS1zdGF0ZS1pZD0iV2FpdEZvclByZWRpY3RGYXVsdCIgZGF0YS10ZXN0aWQ9ImdyYXBoLVdhaXRGb3JQcmVkaWN0RmF1bHQiIGNsYXNzPSJzYy15ZW9JaiBnVFlTVkYgbm9kZSBzdGF0ZSBXYWl0Ij4mI3hhOzxnIGNsYXNzPSJuZXctbG9vay1zdGF0ZS1ub2RlIj4mI3hhOzxyZWN0IHJ5PSIzIiByeD0iMyIgaGVpZ2h0PSI0OSIgd2lkdGg9IjI0MCIgeT0iLTI0LjUiIHg9Ii0xMjAiLz4mI3hhOzxnIHRyYW5zZm9ybT0idHJhbnNsYXRlKC0xMjAsLTI0LjUpIiBjbGFzcz0iaGFuZGxlIj4mI3hhOzxwYXRoIGQ9Ik01LDE2IEw1LDM0IE04LDE2IEw4LDM0Ii8+JiN4YTs8L2c+JiN4YTs8ZyB0cmFuc2Zvcm09InRyYW5zbGF0ZSgtMTA0LC0yNCkiIGNsYXNzPSJpY29uIj4mI3hhOzxyZWN0IGhlaWdodD0iNDgiIHdpZHRoPSI0OCIgeT0iMC4wMTgxMjkxOTY3IiB4PSIwLjAzNjEwMjYxMDgiIGZpbGw9InZhcigtLWNvbG9yLWJhY2tncm91bmQtY29udGFpbmVyLWhlYWRlci1nOXJnMGosICNmYWZhZmEpIi8+JiN4YTs8bGluZSBzdHJva2UtbGluZWNhcD0ic3F1YXJlIiBzdHJva2U9InZhcigtLWNvbG9yLXRleHQtaG9tZS1oZWFkZXItc2Vjb25kYXJ5LWc1cnFlNCwgI2Q1ZGJkYikiIHkyPSI0Ny41IiB4Mj0iNDcuNSIgeTE9IjAuNDkxMjI4MDciIHgxPSI0Ny41Ii8+JiN4YTs8bGluZSBzdHJva2UtbGluZWNhcD0ic3F1YXJlIiBzdHJva2U9InZhcigtLWNvbG9yLXRleHQtaG9tZS1oZWFkZXItc2Vjb25kYXJ5LWc1cnFlNCwgI2Q1ZGJkYikiIHkyPSI0Ny41IiB4Mj0iMC41IiB5MT0iMC40OTEyMjgwNyIgeDE9IjAuNSIvPiYjeGE7PHVzZSBocmVmPSIjaWNvbi1mbG93LXdhaXQiLz4mI3hhOzwvZz4mI3hhOzxnIHRyYW5zZm9ybT0idHJhbnNsYXRlKC00OCwtMjQuNSkiIGNsYXNzPSJ0ZXh0LWxpbmVzIj4mI3hhOzx0ZXh0IGNsYXNzPSJsaW5lMSIgdHJhbnNmb3JtPSJ0cmFuc2xhdGUoMCwxNykiPiYjeGE7PHRzcGFuIHRleHQtYW5jaG9yPSJzdGFydCIgeG1sOnNwYWNlPSJwcmVzZXJ2ZSI+V2FpdCBzdGF0ZTwvdHNwYW4+JiN4YTs8L3RleHQ+JiN4YTs8dGV4dCBjbGFzcz0ibGluZTIgbGFiZWwiIHRyYW5zZm9ybT0idHJhbnNsYXRlKDAsMzUuNSkiPiYjeGE7PHRzcGFuIHRleHQtYW5jaG9yPSJzdGFydCIgeG1sOnNwYWNlPSJwcmVzZXJ2ZSI+V2FpdEZvclByZWRpY3RGYXVsdDwvdHNwYW4+JiN4YTs8L3RleHQ+JiN4YTs8L2c+JiN4YTs8L2c+JiN4YTs8L2c+JiN4YTs8L2c+JiN4YTs8ZyB0cmFuc2Zvcm09InRyYW5zbGF0ZSgzNDUsNjU3KSIgY2xhc3M9Im5vZGUtY29udGFpbmVyIj4mI3hhOzxnIGRhdGEtc3RhdGUtdHlwZT0iVGFzayIgZGF0YS1zdGF0ZS1pZD0iR2V0UHJlZGljdEZhdWx0U3RhdHVzIiBkYXRhLXRlc3RpZD0iZ3JhcGgtR2V0UHJlZGljdEZhdWx0U3RhdHVzIiBjbGFzcz0ic2MteWVvSWogZ1RZU1ZGIG5vZGUgc3RhdGUgVGFzayI+JiN4YTs8ZyBjbGFzcz0ibmV3LWxvb2stc3RhdGUtbm9kZSI+JiN4YTs8cmVjdCByeT0iMyIgcng9IjMiIGhlaWdodD0iNDkiIHdpZHRoPSIyNDAiIHk9Ii0yNC41IiB4PSItMTIwIi8+JiN4YTs8ZyB0cmFuc2Zvcm09InRyYW5zbGF0ZSgtMTIwLC0yNC41KSIgY2xhc3M9ImhhbmRsZSI+JiN4YTs8cGF0aCBkPSJNNSwxNiBMNSwzNCBNOCwxNiBMOCwzNCIvPiYjeGE7PC9nPiYjeGE7PGcgdHJhbnNmb3JtPSJ0cmFuc2xhdGUoLTEwNCwtMjQpIiBjbGFzcz0iaWNvbiI+JiN4YTs8cmVjdCBoZWlnaHQ9IjQ4IiB3aWR0aD0iNDgiIHk9IjAuMDE4MTI5MTk2NyIgeD0iMC4wMzYxMDI2MTA4IiBmaWxsPSJ2YXIoLS1jb2xvci1iYWNrZ3JvdW5kLWNvbnRhaW5lci1oZWFkZXItZzlyZzBqLCAjZmFmYWZhKSIvPiYjeGE7PGxpbmUgc3Ryb2tlLWxpbmVjYXA9InNxdWFyZSIgc3Ryb2tlPSJ2YXIoLS1jb2xvci10ZXh0LWhvbWUtaGVhZGVyLXNlY29uZGFyeS1nNXJxZTQsICNkNWRiZGIpIiB5Mj0iNDcuNSIgeDI9IjQ3LjUiIHkxPSIwLjQ5MTIyODA3IiB4MT0iNDcuNSIvPiYjeGE7PGxpbmUgc3Ryb2tlLWxpbmVjYXA9InNxdWFyZSIgc3Ryb2tlPSJ2YXIoLS1jb2xvci10ZXh0LWhvbWUtaGVhZGVyLXNlY29uZGFyeS1nNXJxZTQsICNkNWRiZGIpIiB5Mj0iNDcuNSIgeDI9IjAuNSIgeTE9IjAuNDkxMjI4MDciIHgxPSIwLjUiLz4mI3hhOzx1c2UgaHJlZj0iI2ljb24tc2VydmljZS1sYW0iPiYjeGE7PHRpdGxlPkxhbWJkYTwvdGl0bGU+JiN4YTs8L3VzZT4mI3hhOzwvZz4mI3hhOzxnIHRyYW5zZm9ybT0idHJhbnNsYXRlKC00OCwtMjQuNSkiIGNsYXNzPSJ0ZXh0LWxpbmVzIj4mI3hhOzx0ZXh0IGNsYXNzPSJsaW5lMSIgdHJhbnNmb3JtPSJ0cmFuc2xhdGUoMCwxNykiPiYjeGE7PHRzcGFuIHRleHQtYW5jaG9yPSJzdGFydCIgeG1sOnNwYWNlPSJwcmVzZXJ2ZSI+TGFtYmRhOiBJbnZva2U8L3RzcGFuPiYjeGE7PC90ZXh0PiYjeGE7PHRleHQgY2xhc3M9ImxpbmUyIGxhYmVsIiB0cmFuc2Zvcm09InRyYW5zbGF0ZSgwLDM1LjUpIj4mI3hhOzx0c3BhbiB0ZXh0LWFuY2hvcj0ic3RhcnQiIHhtbDpzcGFjZT0icHJlc2VydmUiPkdldFByZWRpY3RGYXVsdFN0YXR1czwvdHNwYW4+JiN4YTs8L3RleHQ+JiN4YTs8L2c+JiN4YTs8L2c+JiN4YTs8L2c+JiN4YTs8L2c+JiN4YTs8ZyB0cmFuc2Zvcm09InRyYW5zbGF0ZSgyNDYsNzU3LjUpIiBjbGFzcz0ibm9kZS1jb250YWluZXIiPiYjeGE7PGcgZGF0YS1zdGF0ZS10eXBlPSJDaG9pY2UiIGRhdGEtc3RhdGUtaWQ9IkNoZWNrUHJlZGljdEZhdWx0U3RhdHVzIiBkYXRhLXRlc3RpZD0iZ3JhcGgtQ2hlY2tQcmVkaWN0RmF1bHRTdGF0dXMiIGNsYXNzPSJzYy15ZW9JaiBnVFlTVkYgbm9kZSBzdGF0ZSBDaG9pY2UiPiYjeGE7PGcgY2xhc3M9Im5ldy1sb29rLXN0YXRlLW5vZGUiPiYjeGE7PHJlY3Qgcnk9IjMiIHJ4PSIzIiBoZWlnaHQ9IjQ5IiB3aWR0aD0iMjQwIiB5PSItMjQuNSIgeD0iLTEyMCIvPiYjeGE7PGcgdHJhbnNmb3JtPSJ0cmFuc2xhdGUoLTEyMCwtMjQuNSkiIGNsYXNzPSJoYW5kbGUiPiYjeGE7PHBhdGggZD0iTTUsMTYgTDUsMzQgTTgsMTYgTDgsMzQiLz4mI3hhOzwvZz4mI3hhOzxnIHRyYW5zZm9ybT0idHJhbnNsYXRlKC0xMDQsLTI0KSIgY2xhc3M9Imljb24iPiYjeGE7PHJlY3QgaGVpZ2h0PSI0OCIgd2lkdGg9IjQ4IiB5PSIwLjAxODEyOTE5NjciIHg9IjAuMDM2MTAyNjEwOCIgZmlsbD0idmFyKC0tY29sb3ItYmFja2dyb3VuZC1jb250YWluZXItaGVhZGVyLWc5cmcwaiwgI2ZhZmFmYSkiLz4mI3hhOzxsaW5lIHN0cm9rZS1saW5lY2FwPSJzcXVhcmUiIHN0cm9rZT0idmFyKC0tY29sb3ItdGV4dC1ob21lLWhlYWRlci1zZWNvbmRhcnktZzVycWU0LCAjZDVkYmRiKSIgeTI9IjQ3LjUiIHgyPSI0Ny41IiB5MT0iMC40OTEyMjgwNyIgeDE9IjQ3LjUiLz4mI3hhOzxsaW5lIHN0cm9rZS1saW5lY2FwPSJzcXVhcmUiIHN0cm9rZT0idmFyKC0tY29sb3ItdGV4dC1ob21lLWhlYWRlci1zZWNvbmRhcnktZzVycWU0LCAjZDVkYmRiKSIgeTI9IjQ3LjUiIHgyPSIwLjUiIHkxPSIwLjQ5MTIyODA3IiB4MT0iMC41Ii8+JiN4YTs8dXNlIGhyZWY9IiNpY29uLWZsb3ctY2hvaWNlIi8+JiN4YTs8L2c+JiN4YTs8ZyB0cmFuc2Zvcm09InRyYW5zbGF0ZSgtNDgsLTI0LjUpIiBjbGFzcz0idGV4dC1saW5lcyI+JiN4YTs8dGV4dCBjbGFzcz0ibGluZTEiIHRyYW5zZm9ybT0idHJhbnNsYXRlKDAsMTcpIj4mI3hhOzx0c3BhbiB0ZXh0LWFuY2hvcj0ic3RhcnQiIHhtbDpzcGFjZT0icHJlc2VydmUiPkNob2ljZSBzdGF0ZTwvdHNwYW4+JiN4YTs8L3RleHQ+JiN4YTs8dGV4dCBjbGFzcz0ibGluZTIgbGFiZWwiIHRyYW5zZm9ybT0idHJhbnNsYXRlKDAsMzUuNSkiPiYjeGE7PHRzcGFuIHRleHQtYW5jaG9yPSJzdGFydCIgeG1sOnNwYWNlPSJwcmVzZXJ2ZSI+Q2hlY2tQcmVkaWN0RmF1bHRTdGF0dXM8L3RzcGFuPiYjeGE7PC90ZXh0PiYjeGE7PC9nPiYjeGE7PC9nPiYjeGE7PC9nPiYjeGE7PC9nPiYjeGE7PGcgdHJhbnNmb3JtPSJ0cmFuc2xhdGUoMTM1LDg1OCkiIGNsYXNzPSJub2RlLWNvbnRhaW5lciI+JiN4YTs8ZyBkYXRhLXN0YXRlLXR5cGU9IlRhc2siIGRhdGEtc3RhdGUtaWQ9Ik5vdGlmeVN1Y2Nlc3MiIGRhdGEtdGVzdGlkPSJncmFwaC1Ob3RpZnlTdWNjZXNzIiBjbGFzcz0ic2MteWVvSWogZ1RZU1ZGIG5vZGUgc3RhdGUgVGFzayI+JiN4YTs8ZyBjbGFzcz0ibmV3LWxvb2stc3RhdGUtbm9kZSI+JiN4YTs8cmVjdCByeT0iMyIgcng9IjMiIGhlaWdodD0iNDkiIHdpZHRoPSIyNDAiIHk9Ii0yNC41IiB4PSItMTIwIi8+JiN4YTs8ZyB0cmFuc2Zvcm09InRyYW5zbGF0ZSgtMTIwLC0yNC41KSIgY2xhc3M9ImhhbmRsZSI+JiN4YTs8cGF0aCBkPSJNNSwxNiBMNSwzNCBNOCwxNiBMOCwzNCIvPiYjeGE7PC9nPiYjeGE7PGcgdHJhbnNmb3JtPSJ0cmFuc2xhdGUoLTEwNCwtMjQpIiBjbGFzcz0iaWNvbiI+JiN4YTs8cmVjdCBoZWlnaHQ9IjQ4IiB3aWR0aD0iNDgiIHk9IjAuMDE4MTI5MTk2NyIgeD0iMC4wMzYxMDI2MTA4IiBmaWxsPSJ2YXIoLS1jb2xvci1iYWNrZ3JvdW5kLWNvbnRhaW5lci1oZWFkZXItZzlyZzBqLCAjZmFmYWZhKSIvPiYjeGE7PGxpbmUgc3Ryb2tlLWxpbmVjYXA9InNxdWFyZSIgc3Ryb2tlPSJ2YXIoLS1jb2xvci10ZXh0LWhvbWUtaGVhZGVyLXNlY29uZGFyeS1nNXJxZTQsICNkNWRiZGIpIiB5Mj0iNDcuNSIgeDI9IjQ3LjUiIHkxPSIwLjQ5MTIyODA3IiB4MT0iNDcuNSIvPiYjeGE7PGxpbmUgc3Ryb2tlLWxpbmVjYXA9InNxdWFyZSIgc3Ryb2tlPSJ2YXIoLS1jb2xvci10ZXh0LWhvbWUtaGVhZGVyLXNlY29uZGFyeS1nNXJxZTQsICNkNWRiZGIpIiB5Mj0iNDcuNSIgeDI9IjAuNSIgeTE9IjAuNDkxMjI4MDciIHgxPSIwLjUiLz4mI3hhOzx1c2UgaHJlZj0iI2ljb24tc2VydmljZS1sYW0iPiYjeGE7PHRpdGxlPkxhbWJkYTwvdGl0bGU+JiN4YTs8L3VzZT4mI3hhOzwvZz4mI3hhOzxnIHRyYW5zZm9ybT0idHJhbnNsYXRlKC00OCwtMjQuNSkiIGNsYXNzPSJ0ZXh0LWxpbmVzIj4mI3hhOzx0ZXh0IGNsYXNzPSJsaW5lMSIgdHJhbnNmb3JtPSJ0cmFuc2xhdGUoMCwxNykiPiYjeGE7PHRzcGFuIHRleHQtYW5jaG9yPSJzdGFydCIgeG1sOnNwYWNlPSJwcmVzZXJ2ZSI+TGFtYmRhOiBJbnZva2U8L3RzcGFuPiYjeGE7PC90ZXh0PiYjeGE7PHRleHQgY2xhc3M9ImxpbmUyIGxhYmVsIiB0cmFuc2Zvcm09InRyYW5zbGF0ZSgwLDM1LjUpIj4mI3hhOzx0c3BhbiB0ZXh0LWFuY2hvcj0ic3RhcnQiIHhtbDpzcGFjZT0icHJlc2VydmUiPk5vdGlmeVN1Y2Nlc3M8L3RzcGFuPiYjeGE7PC90ZXh0PiYjeGE7PC9nPiYjeGE7PC9nPiYjeGE7PC9nPiYjeGE7PC9nPiYjeGE7PGcgdHJhbnNmb3JtPSJ0cmFuc2xhdGUoMTIwLDEwNDIuNSkiIGNsYXNzPSJub2RlLWNvbnRhaW5lciI+JiN4YTs8ZyBkYXRhLXN0YXRlLXR5cGU9IlN1Y2NlZWQiIGRhdGEtc3RhdGUtaWQ9IlN1Y2Nlc3MiIGRhdGEtdGVzdGlkPSJncmFwaC1TdWNjZXNzIiBjbGFzcz0ic2MteWVvSWogZ1RZU1ZGIG5vZGUgc3RhdGUgU3VjY2VlZCI+JiN4YTs8ZyBjbGFzcz0ibmV3LWxvb2stc3RhdGUtbm9kZSI+JiN4YTs8cmVjdCByeT0iMyIgcng9IjMiIGhlaWdodD0iNDkiIHdpZHRoPSIyNDAiIHk9Ii0yNC41IiB4PSItMTIwIi8+JiN4YTs8ZyB0cmFuc2Zvcm09InRyYW5zbGF0ZSgtMTIwLC0yNC41KSIgY2xhc3M9ImhhbmRsZSI+JiN4YTs8cGF0aCBkPSJNNSwxNiBMNSwzNCBNOCwxNiBMOCwzNCIvPiYjeGE7PC9nPiYjeGE7PGcgdHJhbnNmb3JtPSJ0cmFuc2xhdGUoLTEwNCwtMjQpIiBjbGFzcz0iaWNvbiI+JiN4YTs8cmVjdCBoZWlnaHQ9IjQ4IiB3aWR0aD0iNDgiIHk9IjAuMDE4MTI5MTk2NyIgeD0iMC4wMzYxMDI2MTA4IiBmaWxsPSJ2YXIoLS1jb2xvci1iYWNrZ3JvdW5kLWNvbnRhaW5lci1oZWFkZXItZzlyZzBqLCAjZmFmYWZhKSIvPiYjeGE7PGxpbmUgc3Ryb2tlLWxpbmVjYXA9InNxdWFyZSIgc3Ryb2tlPSJ2YXIoLS1jb2xvci10ZXh0LWhvbWUtaGVhZGVyLXNlY29uZGFyeS1nNXJxZTQsICNkNWRiZGIpIiB5Mj0iNDcuNSIgeDI9IjQ3LjUiIHkxPSIwLjQ5MTIyODA3IiB4MT0iNDcuNSIvPiYjeGE7PGxpbmUgc3Ryb2tlLWxpbmVjYXA9InNxdWFyZSIgc3Ryb2tlPSJ2YXIoLS1jb2xvci10ZXh0LWhvbWUtaGVhZGVyLXNlY29uZGFyeS1nNXJxZTQsICNkNWRiZGIpIiB5Mj0iNDcuNSIgeDI9IjAuNSIgeTE9IjAuNDkxMjI4MDciIHgxPSIwLjUiLz4mI3hhOzx1c2UgaHJlZj0iI2ljb24tZmxvdy1zdWNjZWVkIi8+JiN4YTs8L2c+JiN4YTs8ZyB0cmFuc2Zvcm09InRyYW5zbGF0ZSgtNDgsLTI0LjUpIiBjbGFzcz0idGV4dC1saW5lcyI+JiN4YTs8dGV4dCBjbGFzcz0ibGluZTEiIHRyYW5zZm9ybT0idHJhbnNsYXRlKDAsMTcpIj4mI3hhOzx0c3BhbiB0ZXh0LWFuY2hvcj0ic3RhcnQiIHhtbDpzcGFjZT0icHJlc2VydmUiPlN1Y2NlZWQgc3RhdGU8L3RzcGFuPiYjeGE7PC90ZXh0PiYjeGE7PHRleHQgY2xhc3M9ImxpbmUyIGxhYmVsIiB0cmFuc2Zvcm09InRyYW5zbGF0ZSgwLDM1LjUpIj4mI3hhOzx0c3BhbiB0ZXh0LWFuY2hvcj0ic3RhcnQiIHhtbDpzcGFjZT0icHJlc2VydmUiPlN1Y2Nlc3M8L3RzcGFuPiYjeGE7PC90ZXh0PiYjeGE7PC9nPiYjeGE7PC9nPiYjeGE7PC9nPiYjeGE7PC9nPiYjeGE7PGcgdHJhbnNmb3JtPSJ0cmFuc2xhdGUoNTAwLDExMjQpIiBjbGFzcz0ibm9kZS1jb250YWluZXIiPiYjeGE7PGc+JiN4YTs8Y2lyY2xlIHI9IjIyIiBjbGFzcz0ic2MtZ1VBRU1DIG5kZEMgc2hhcGUiLz4mI3hhOzx0ZXh0IGNsYXNzPSJzYy1oanJpUGIga2prU09ZIGxhYmVsIj4mI3hhOzx0c3BhbiBhbGlnbm1lbnQtYmFzZWxpbmU9ImNlbnRyYWwiIHRleHQtYW5jaG9yPSJtaWRkbGUiIHhtbDpzcGFjZT0icHJlc2VydmUiPkVuZDwvdHNwYW4+JiN4YTs8L3RleHQ+JiN4YTs8L2c+JiN4YTs8L2c+JiN4YTs8ZyB0cmFuc2Zvcm09InRyYW5zbGF0ZSg4MTIsMTA0Mi41KSIgY2xhc3M9Im5vZGUtY29udGFpbmVyIj4mI3hhOzxnIGRhdGEtc3RhdGUtdHlwZT0iRmFpbCIgZGF0YS1zdGF0ZS1pZD0iRmFpbCIgZGF0YS10ZXN0aWQ9ImdyYXBoLUZhaWwiIGNsYXNzPSJzYy15ZW9JaiBnVFlTVkYgbm9kZSBzdGF0ZSBGYWlsIj4mI3hhOzxnIGNsYXNzPSJuZXctbG9vay1zdGF0ZS1ub2RlIj4mI3hhOzxyZWN0IHJ5PSIzIiByeD0iMyIgaGVpZ2h0PSI0OSIgd2lkdGg9IjI0MCIgeT0iLTI0LjUiIHg9Ii0xMjAiLz4mI3hhOzxnIHRyYW5zZm9ybT0idHJhbnNsYXRlKC0xMjAsLTI0LjUpIiBjbGFzcz0iaGFuZGxlIj4mI3hhOzxwYXRoIGQ9Ik01LDE2IEw1LDM0IE04LDE2IEw4LDM0Ii8+JiN4YTs8L2c+JiN4YTs8ZyB0cmFuc2Zvcm09InRyYW5zbGF0ZSgtMTA0LC0yNCkiIGNsYXNzPSJpY29uIj4mI3hhOzxyZWN0IGhlaWdodD0iNDgiIHdpZHRoPSI0OCIgeT0iMC4wMTgxMjkxOTY3IiB4PSIwLjAzNjEwMjYxMDgiIGZpbGw9InZhcigtLWNvbG9yLWJhY2tncm91bmQtY29udGFpbmVyLWhlYWRlci1nOXJnMGosICNmYWZhZmEpIi8+JiN4YTs8bGluZSBzdHJva2UtbGluZWNhcD0ic3F1YXJlIiBzdHJva2U9InZhcigtLWNvbG9yLXRleHQtaG9tZS1oZWFkZXItc2Vjb25kYXJ5LWc1cnFlNCwgI2Q1ZGJkYikiIHkyPSI0Ny41IiB4Mj0iNDcuNSIgeTE9IjAuNDkxMjI4MDciIHgxPSI0Ny41Ii8+JiN4YTs8bGluZSBzdHJva2UtbGluZWNhcD0ic3F1YXJlIiBzdHJva2U9InZhcigtLWNvbG9yLXRleHQtaG9tZS1oZWFkZXItc2Vjb25kYXJ5LWc1cnFlNCwgI2Q1ZGJkYikiIHkyPSI0Ny41IiB4Mj0iMC41IiB5MT0iMC40OTEyMjgwNyIgeDE9IjAuNSIvPiYjeGE7PHVzZSBocmVmPSIjaWNvbi1mbG93LWZhaWwiLz4mI3hhOzwvZz4mI3hhOzxnIHRyYW5zZm9ybT0idHJhbnNsYXRlKC00OCwtMjQuNSkiIGNsYXNzPSJ0ZXh0LWxpbmVzIj4mI3hhOzx0ZXh0IGNsYXNzPSJsaW5lMSIgdHJhbnNmb3JtPSJ0cmFuc2xhdGUoMCwxNykiPiYjeGE7PHRzcGFuIHRleHQtYW5jaG9yPSJzdGFydCIgeG1sOnNwYWNlPSJwcmVzZXJ2ZSI+RmFpbCBzdGF0ZTwvdHNwYW4+JiN4YTs8L3RleHQ+JiN4YTs8dGV4dCBjbGFzcz0ibGluZTIgbGFiZWwiIHRyYW5zZm9ybT0idHJhbnNsYXRlKDAsMzUuNSkiPiYjeGE7PHRzcGFuIHRleHQtYW5jaG9yPSJzdGFydCIgeG1sOnNwYWNlPSJwcmVzZXJ2ZSI+RmFpbDwvdHNwYW4+JiN4YTs8L3RleHQ+JiN4YTs8L2c+JiN4YTs8L2c+JiN4YTs8L2c+JiN4YTs8L2c+JiN4YTs8L2c+JiN4YTs8ZyBjbGFzcz0iZWRnZXMiPiYjeGE7PGcgY2xhc3M9InNjLWRXSU5HYSBlemRZWEcgZWRnZSI+JiN4YTs8cGF0aCBmaWxsPSJub25lIiBtYXJrZXItZW5kPSJ1cmwoI2Fycm93aGVhZCkiIGQ9Ik04MTUuNzkxNjY2NjY2NjY2NiwxMjhMODEwLjQwOTcyMjIyMjIyMjIsMTMwLjkxNjY2NjY2NjY2NjY2QzgwNS4wMjc3Nzc3Nzc3Nzc3LDEzMy44MzMzMzMzMzMzMzMzNCw3OTQuMjYzODg4ODg4ODg4OCwxMzkuNjY2NjY2NjY2NjY2NjYsNzg4Ljg4MTk0NDQ0NDQ0NDMsMTQ1LjVDNzgzLjUsMTUxLjMzMzMzMzMzMzMzMzM0LDc4My41LDE1Ny4xNjY2NjY2NjY2NjY2Niw3ODMuNSwxNjAuMDgzMzMzMzMzMzMzMzRMNzgzLjUsMTYzIiBpZD0ic3RhdGUtSW5nZXN0RGF0YTpzdGF0ZS1XYWl0Rm9ySW5nZXN0RGF0YTpub3JtYWwiLz4mI3hhOzwvZz4mI3hhOzxnIGNsYXNzPSJzYy1kV0lOR2EgZXpkWVhHIGVkZ2UiPiYjeGE7PHBhdGggZmlsbD0ibm9uZSIgbWFya2VyLWVuZD0idXJsKCNhcnJvd2hlYWQpIiBkPSJNOTgxLDExNC42NzUxNjYyOTcxMTc1MUwxMDM2LjE2NjY2NjY2NjY2NjcsMTE5LjgxMjYzODU4MDkzMTI2QzEwOTEuMzMzMzMzMzMzMzMzMywxMjQuOTUwMTEwODY0NzQ1MDEsMTIwMS42NjY2NjY2NjY2NjY3LDEzNS4yMjUwNTU0MzIzNzI1LDEyNTYuODMzMzMzMzMzMzMzMywxNDcuMzYyNTI3NzE2MTg2MjRDMTMxMiwxNTkuNSwxMzEyLDE3My41LDEzMTIsMTg3LjVDMTMxMiwyMDEuNSwxMzEyLDIxNS41LDEzMTIsMjI5LjVDMTMxMiwyNDMuNSwxMzEyLDI1Ny41LDEzMTIsMjcxLjVDMTMxMiwyODUuNSwxMzEyLDI5OS41LDEzMTIsMzEzLjVDMTMxMiwzMjcuNSwxMzEyLDM0MS41LDEzMTIsMzU2Ljg3NUMxMzEyLDM3Mi4yNSwxMzEyLDM4OSwxMzEyLDQwNS43NUMxMzEyLDQyMi41LDEzMTIsNDM5LjI1LDEzMTIsNDU2QzEzMTIsNDcyLjc1LDEzMTIsNDg5LjUsMTMxMiw1MDYuMjVDMTMxMiw1MjMsMTMxMiw1MzkuNzUsMTMxMiw1NTYuNUMxMzEyLDU3My4yNSwxMzEyLDU5MCwxMzEyLDYwNi43NUMxMzEyLDYyMy41LDEzMTIsNjQwLjI1LDEzMTIsNjU3QzEzMTIsNjczLjc1LDEzMTIsNjkwLjUsMTMxMiw3MDcuMjVDMTMxMiw3MjQsMTMxMiw3NDAuNzUsMTMxMiw3NTcuNUMxMzEyLDc3NC4yNSwxMzEyLDc5MSwxMzEyLDgwNy43NUMxMzEyLDgyNC41LDEzMTIsODQxLjI1LDEzMTIsODU4QzEzMTIsODc0Ljc1LDEzMTIsODkxLjUsMTI0OC42NjY2NjY2NjY2NjY3LDkwNi4yNDAwMDAwMDAwMDAxQzExODUuMzMzMzMzMzMzMzMzMyw5MjAuOTgsMTA1OC42NjY2NjY2NjY2NjY3LDkzMy43MSw5OTUuMzMzMzMzMzMzMzMzNCw5NDAuMDc1MDAwMDAwMDAwMkw5MzIsOTQ2LjQ0IiBpZD0ic3RhdGUtSW5nZXN0RGF0YTpzdGF0ZS1Ob3RpZnlGYWlsdXJlOmNhdGNoOjAiLz4mI3hhOzxnIHRyYW5zZm9ybT0idHJhbnNsYXRlKDEyNTYuODMzMzMzMzMzMzMzMywxNDcuMzYyNTI3NzE2MTg2MjQpIiBjbGFzcz0iZWRnZS1sYWJlbCIgZGF0YS10ZXN0aWQ9ImdyYXBoLUluZ2VzdERhdGEtMCI+JiN4YTs8cmVjdCBjbGFzcz0ic2MtakdwclJ0IGZNdnhjcyIgaGVpZ2h0PSIxNi41IiB3aWR0aD0iNTAiIHk9Ii04LjI1IiB4PSItMjUiLz4mI3hhOzx0ZXh0IGNsYXNzPSJzYy1iUHlocW8gY0lJdFZkIGxhYmVsIj4mI3hhOzx0c3BhbiBhbGlnbm1lbnQtYmFzZWxpbmU9ImNlbnRyYWwiIHRleHQtYW5jaG9yPSJtaWRkbGUiIHhtbDpzcGFjZT0icHJlc2VydmUiPkNhdGNoICMxPC90c3Bhbj4mI3hhOzx0aXRsZT5DYXRjaCAjMTwvdGl0bGU+JiN4YTs8L3RleHQ+JiN4YTs8L2c+JiN4YTs8L2c+JiN4YTs8ZyBjbGFzcz0ic2MtZFdJTkdhIGV6ZFlYRyBlZGdlIj4mI3hhOzxwYXRoIGZpbGw9Im5vbmUiIG1hcmtlci1lbmQ9InVybCgjYXJyb3doZWFkKSIgZD0iTTg2MSw0NEw4NjEsNDYuOTE2NjY2NjY2NjY2NjY0Qzg2MSw0OS44MzMzMzMzMzMzMzMzMzYsODYxLDU1LjY2NjY2NjY2NjY2NjY2NCw4NjEsNjEuNUM4NjEsNjcuMzMzMzMzMzMzMzMzMzMsODYxLDczLjE2NjY2NjY2NjY2NjY3LDg2MSw3Ni4wODMzMzMzMzMzMzMzM0w4NjEsNzkiIGlkPSJzdGFydDpzdGF0ZS1Jbmdlc3REYXRhIi8+JiN4YTs8L2c+JiN4YTs8ZyBjbGFzcz0ic2MtZFdJTkdhIGV6ZFlYRyBlZGdlIj4mI3hhOzxwYXRoIGZpbGw9Im5vbmUiIG1hcmtlci1lbmQ9InVybCgjYXJyb3doZWFkKSIgZD0iTTczOC4yOTE2NjY2NjY2NjY2LDIxMkw3MzIuOTA5NzIyMjIyMjIyMiwyMTQuOTE2NjY2NjY2NjY2NjZDNzI3LjUyNzc3Nzc3Nzc3NzcsMjE3LjgzMzMzMzMzMzMzMzM0LDcxNi43NjM4ODg4ODg4ODg4LDIyMy42NjY2NjY2NjY2NjY2Niw3MTEuMzgxOTQ0NDQ0NDQ0MywyMjkuNUM3MDYsMjM1LjMzMzMzMzMzMzMzMzM0LDcwNiwyNDEuMTY2NjY2NjY2NjY2NjYsNzA2LDI0NC4wODMzMzMzMzMzMzMzNEw3MDYsMjQ3IiBpZD0ic3RhdGUtV2FpdEZvckluZ2VzdERhdGE6c3RhdGUtR2V0SW5nZXN0RGF0YVN0YXR1czpub3JtYWwiLz4mI3hhOzwvZz4mI3hhOzxnIGNsYXNzPSJzYy1kV0lOR2EgZXpkWVhHIGVkZ2UiPiYjeGE7PHBhdGggZmlsbD0ibm9uZSIgbWFya2VyLWVuZD0idXJsKCNhcnJvd2hlYWQpIiBkPSJNNjQ5LjQxNjY2NjY2NjY2NjYsMjk2TDY0Mi42ODA1NTU1NTU1NTU1LDI5OC45MTY2NjY2NjY2NjY3QzYzNS45NDQ0NDQ0NDQ0NDQ1LDMwMS44MzMzMzMzMzMzMzMzLDYyMi40NzIyMjIyMjIyMjIyLDMwNy42NjY2NjY2NjY2NjY3LDYxNS43MzYxMTExMTExMTExLDMxMy41QzYwOSwzMTkuMzMzMzMzMzMzMzMzMyw2MDksMzI1LjE2NjY2NjY2NjY2NjcsNjA5LDMyOC4wODMzMzMzMzMzMzMzTDYwOSwzMzEiIGlkPSJzdGF0ZS1HZXRJbmdlc3REYXRhU3RhdHVzOnN0YXRlLUNoZWNrSW5nZXN0RGF0YVN0YXR1czpub3JtYWwiLz4mI3hhOzwvZz4mI3hhOzxnIGNsYXNzPSJzYy1kV0lOR2EgZXpkWVhHIGVkZ2UiPiYjeGE7PHBhdGggZmlsbD0ibm9uZSIgbWFya2VyLWVuZD0idXJsKCNhcnJvd2hlYWQpIiBkPSJNODI2LDI4NC4xMzE1Nzg5NDczNjg0NEw4NzIuNSwyODkuMDI2MzE1Nzg5NDczN0M5MTksMjkzLjkyMTA1MjYzMTU3ODk2LDEwMTIsMzAzLjcxMDUyNjMxNTc4OTUsMTA1OC41LDMxNS42MDUyNjMxNTc4OTQ3NEMxMTA1LDMyNy41LDExMDUsMzQxLjUsMTEwNSwzNTYuODc1QzExMDUsMzcyLjI1LDExMDUsMzg5LDExMDUsNDA1Ljc1QzExMDUsNDIyLjUsMTEwNSw0MzkuMjUsMTEwNSw0NTZDMTEwNSw0NzIuNzUsMTEwNSw0ODkuNSwxMTA1LDUwNi4yNUMxMTA1LDUyMywxMTA1LDUzOS43NSwxMTA1LDU1Ni41QzExMDUsNTczLjI1LDExMDUsNTkwLDExMDUsNjA2Ljc1QzExMDUsNjIzLjUsMTEwNSw2NDAuMjUsMTEwNSw2NTdDMTEwNSw2NzMuNzUsMTEwNSw2OTAuNSwxMTA1LDcwNy4yNUMxMTA1LDcyNCwxMTA1LDc0MC43NSwxMTA1LDc1Ny41QzExMDUsNzc0LjI1LDExMDUsNzkxLDExMDUsODA3Ljc1QzExMDUsODI0LjUsMTEwNSw4NDEuMjUsMTEwNSw4NThDMTEwNSw4NzQuNzUsMTEwNSw4OTEuNSwxMDc2LjE2NjY2NjY2NjY2NjcsOTA0LjgxOTk2NTg3MDMwNzFDMTA0Ny4zMzMzMzMzMzMzMzMzLDkxOC4xMzk5MzE3NDA2MTQzLDk4OS42NjY2NjY2NjY2NjY2LDkyOC4wMjk4NjM0ODEyMjg3LDk2MC44MzMzMzMzMzMzMzM0LDkzMi45NzQ4MjkzNTE1MzU4TDkzMiw5MzcuOTE5Nzk1MjIxODQzMSIgaWQ9InN0YXRlLUdldEluZ2VzdERhdGFTdGF0dXM6c3RhdGUtTm90aWZ5RmFpbHVyZTpjYXRjaDowIi8+JiN4YTs8ZyB0cmFuc2Zvcm09InRyYW5zbGF0ZSgxMDU4LjUsMzE1LjYwNTI2MzE1Nzg5NDc0KSIgY2xhc3M9ImVkZ2UtbGFiZWwiIGRhdGEtdGVzdGlkPSJncmFwaC1HZXRJbmdlc3REYXRhU3RhdHVzLTAiPiYjeGE7PHJlY3QgY2xhc3M9InNjLWpHcHJSdCBmTXZ4Y3MiIGhlaWdodD0iMTYuNSIgd2lkdGg9IjUwIiB5PSItOC4yNSIgeD0iLTI1Ii8+JiN4YTs8dGV4dCBjbGFzcz0ic2MtYlB5aHFvIGNJSXRWZCBsYWJlbCI+JiN4YTs8dHNwYW4gYWxpZ25tZW50LWJhc2VsaW5lPSJjZW50cmFsIiB0ZXh0LWFuY2hvcj0ibWlkZGxlIiB4bWw6c3BhY2U9InByZXNlcnZlIj5DYXRjaCAjMTwvdHNwYW4+JiN4YTs8dGl0bGU+Q2F0Y2ggIzE8L3RpdGxlPiYjeGE7PC90ZXh0PiYjeGE7PC9nPiYjeGE7PC9nPiYjeGE7PGcgY2xhc3M9InNjLWRXSU5HYSBlemRZWEcgZWRnZSI+JiN4YTs8cGF0aCBmaWxsPSJub25lIiBtYXJrZXItZW5kPSJ1cmwoI2Fycm93aGVhZCkiIGQ9Ik01NTUuODU1NzIxMzkzMDM0OSwzODBMNTQ2LjU0NjQzNDQ5NDE5NTgsMzg0LjI5MTY2NjY2NjY2NjdDNTM3LjIzNzE0NzU5NTM1NjUsMzg4LjU4MzMzMzMzMzMzMzMsNTE4LjYxODU3Mzc5NzY3ODMsMzk3LjE2NjY2NjY2NjY2NjcsNTA5LjMwOTI4Njg5ODgzOTE2LDQwNS43NUM1MDAsNDE0LjMzMzMzMzMzMzMzMzMsNTAwLDQyMi45MTY2NjY2NjY2NjY3LDUwMCw0MjcuMjA4MzMzMzMzMzMzM0w1MDAsNDMxLjUiIGlkPSJzdGF0ZS1DaGVja0luZ2VzdERhdGFTdGF0dXM6c3RhdGUtUHJlZGljdEZhdWx0OmNob2ljZVJ1bGU6MCIvPiYjeGE7PGcgdHJhbnNmb3JtPSJ0cmFuc2xhdGUoNTA5LjMwOTI4Njg5ODgzOTE2LDQwNS43NSkiIGNsYXNzPSJlZGdlLWxhYmVsIiBkYXRhLXRlc3RpZD0iZ3JhcGgtQ2hlY2tJbmdlc3REYXRhU3RhdHVzLTAiPiYjeGE7PHJlY3QgY2xhc3M9InNjLWpHcHJSdCBmTXZ4Y3MiIGhlaWdodD0iMTYuNSIgd2lkdGg9IjE4OCIgeT0iLTguMjUiIHg9Ii05NCIvPiYjeGE7PHRleHQgY2xhc3M9InNjLWJQeWhxbyBjSUl0VmQgbGFiZWwiPiYjeGE7PHRzcGFuIGFsaWdubWVudC1iYXNlbGluZT0iY2VudHJhbCIgdGV4dC1hbmNob3I9Im1pZGRsZSIgeG1sOnNwYWNlPSJwcmVzZXJ2ZSI+JC5pbmdlc3Rfc3RhdHVzLnN0YXR1cyA9PSAiU1VDQ0VFREVEIjwvdHNwYW4+JiN4YTs8dGl0bGU+JC5pbmdlc3Rfc3RhdHVzLnN0YXR1cyA9PSAiU1VDQ0VFREVEIjwvdGl0bGU+JiN4YTs8L3RleHQ+JiN4YTs8L2c+JiN4YTs8L2c+JiN4YTs8ZyBjbGFzcz0ic2MtZFdJTkdhIGV6ZFlYRyBlZGdlIj4mI3hhOzxwYXRoIGZpbGw9Im5vbmUiIG1hcmtlci1lbmQ9InVybCgjYXJyb3doZWFkKSIgZD0iTTcyOSwzNzUuNDY2ODg3NDE3MjE4Nkw3NTkuMzMzMzMzMzMzMzMzNCwzODAuNTE0MDcyODQ3NjgyMTRDNzg5LjY2NjY2NjY2NjY2NjYsMzg1LjU2MTI1ODI3ODE0NTcsODUwLjMzMzMzMzMzMzMzMzQsMzk1LjY1NTYyOTEzOTA3MjgsODgwLjY2NjY2NjY2NjY2NjYsNDA5LjA3NzgxNDU2OTUzNjQzQzkxMSw0MjIuNSw5MTEsNDM5LjI1LDkxMSw0NTZDOTExLDQ3Mi43NSw5MTEsNDg5LjUsOTExLDUwNi4yNUM5MTEsNTIzLDkxMSw1MzkuNzUsOTExLDU1Ni41QzkxMSw1NzMuMjUsOTExLDU5MCw5MTEsNjA2Ljc1QzkxMSw2MjMuNSw5MTEsNjQwLjI1LDkxMSw2NTdDOTExLDY3My43NSw5MTEsNjkwLjUsOTExLDcwNy4yNUM5MTEsNzI0LDkxMSw3NDAuNzUsOTExLDc1Ny41QzkxMSw3NzQuMjUsOTExLDc5MSw5MTEsODA3Ljc1QzkxMSw4MjQuNSw5MTEsODQxLjI1LDkxMSw4NThDOTExLDg3NC43NSw5MTEsODkxLjUsOTAyLjU0NDc3NjExOTQwMzEsOTA0LjE2NjY2NjY2NjY2NjZDODk0LjA4OTU1MjIzODgwNTksOTE2LjgzMzMzMzMzMzMzMzQsODc3LjE3OTEwNDQ3NzYxMTksOTI1LjQxNjY2NjY2NjY2NjYsODY4LjcyMzg4MDU5NzAxNSw5MjkuNzA4MzMzMzMzMzMzNEw4NjAuMjY4NjU2NzE2NDE3OSw5MzQiIGlkPSJzdGF0ZS1DaGVja0luZ2VzdERhdGFTdGF0dXM6c3RhdGUtTm90aWZ5RmFpbHVyZTpjaG9pY2VSdWxlOjEiLz4mI3hhOzxnIHRyYW5zZm9ybT0idHJhbnNsYXRlKDg4MC42NjY2NjY2NjY2NjY2LDQwOS4wNzc4MTQ1Njk1MzY0MykiIGNsYXNzPSJlZGdlLWxhYmVsIiBkYXRhLXRlc3RpZD0iZ3JhcGgtQ2hlY2tJbmdlc3REYXRhU3RhdHVzLTEiPiYjeGE7PHJlY3QgY2xhc3M9InNjLWpHcHJSdCBmTXZ4Y3MiIGhlaWdodD0iMTYuNSIgd2lkdGg9IjE2NCIgeT0iLTguMjUiIHg9Ii04MiIvPiYjeGE7PHRleHQgY2xhc3M9InNjLWJQeWhxbyBjSUl0VmQgbGFiZWwiPiYjeGE7PHRzcGFuIGFsaWdubWVudC1iYXNlbGluZT0iY2VudHJhbCIgdGV4dC1hbmNob3I9Im1pZGRsZSIgeG1sOnNwYWNlPSJwcmVzZXJ2ZSI+JC5pbmdlc3Rfc3RhdHVzLnN0YXR1cyA9PSAiRkFJTEVEIjwvdHNwYW4+JiN4YTs8dGl0bGU+JC5pbmdlc3Rfc3RhdHVzLnN0YXR1cyA9PSAiRkFJTEVEIjwvdGl0bGU+JiN4YTs8L3RleHQ+JiN4YTs8L2c+JiN4YTs8L2c+JiN4YTs8ZyBjbGFzcz0ic2MtZFdJTkdhIGV6ZFlYRyBlZGdlIj4mI3hhOzxwYXRoIGZpbGw9Im5vbmUiIG1hcmtlci1lbmQ9InVybCgjYXJyb3doZWFkKSIgZD0iTTcyOSwzNDYuOTM1ODUzODY1NzYwNEw4MDcuMDgzMzMzMzMzMzMzNCwzNDEuMzYzMjExNTU0ODAwMzNDODg1LjE2NjY2NjY2NjY2NjYsMzM1Ljc5MDU2OTI0Mzg0MDI1LDEwNDEuMzMzMzMzMzMzMzMzMywzMjQuNjQ1Mjg0NjIxOTIwMTUsMTExOS40MTY2NjY2NjY2NjY3LDMxMi4wNzI2NDIzMTA5NjAxQzExOTcuNSwyOTkuNSwxMTk3LjUsMjg1LjUsMTE5Ny41LDI3MS41QzExOTcuNSwyNTcuNSwxMTk3LjUsMjQzLjUsMTE0OC41LDIzMS41Mjg5ODU1MDcyNDYzOEMxMDk5LjUsMjE5LjU1Nzk3MTAxNDQ5Mjc1LDEwMDEuNSwyMDkuNjE1OTQyMDI4OTg1NSw5NTIuNSwyMDQuNjQ0OTI3NTM2MjMxODhMOTAzLjUsMTk5LjY3MzkxMzA0MzQ3ODI1IiBpZD0ic3RhdGUtQ2hlY2tJbmdlc3REYXRhU3RhdHVzOnN0YXRlLVdhaXRGb3JJbmdlc3REYXRhOmNob2ljZURlZmF1bHQiLz4mI3hhOzxnIHRyYW5zZm9ybT0idHJhbnNsYXRlKDExMTkuNDE2NjY2NjY2NjY2NywzMTIuMDcyNjQyMzEwOTYwMSkiIGNsYXNzPSJlZGdlLWxhYmVsIiBkYXRhLXRlc3RpZD0iZ3JhcGgtQ2hlY2tJbmdlc3REYXRhU3RhdHVzLURlZmF1bHQiPiYjeGE7PHJlY3QgY2xhc3M9InNjLWpHcHJSdCBmTXZ4Y3MiIGhlaWdodD0iMTYuNSIgd2lkdGg9IjQ0IiB5PSItOC4yNSIgeD0iLTIyIi8+JiN4YTs8dGV4dCBjbGFzcz0ic2MtYlB5aHFvIGNJSXRWZCBsYWJlbCI+JiN4YTs8dHNwYW4gYWxpZ25tZW50LWJhc2VsaW5lPSJjZW50cmFsIiB0ZXh0LWFuY2hvcj0ibWlkZGxlIiB4bWw6c3BhY2U9InByZXNlcnZlIj5EZWZhdWx0PC90c3Bhbj4mI3hhOzx0aXRsZT5EZWZhdWx0PC90aXRsZT4mI3hhOzwvdGV4dD4mI3hhOzwvZz4mI3hhOzwvZz4mI3hhOzxnIGNsYXNzPSJzYy1kV0lOR2EgZXpkWVhHIGVkZ2UiPiYjeGE7PHBhdGggZmlsbD0ibm9uZSIgbWFya2VyLWVuZD0idXJsKCNhcnJvd2hlYWQpIiBkPSJNNDYyLjIxMzkzMDM0ODI1ODcsNDgwLjVMNDU1LjU5NDk0MTk1Njg4MjIsNDg0Ljc5MTY2NjY2NjY2NjdDNDQ4Ljk3NTk1MzU2NTUwNTgsNDg5LjA4MzMzMzMzMzMzMzMsNDM1LjczNzk3Njc4Mjc1Mjg3LDQ5Ny42NjY2NjY2NjY2NjY3LDQyOS4xMTg5ODgzOTEzNzY0Myw1MDYuMjVDNDIyLjUsNTE0LjgzMzMzMzMzMzMzMzQsNDIyLjUsNTIzLjQxNjY2NjY2NjY2NjYsNDIyLjUsNTI3LjcwODMzMzMzMzMzMzRMNDIyLjUsNTMyIiBpZD0ic3RhdGUtUHJlZGljdEZhdWx0OnN0YXRlLVdhaXRGb3JQcmVkaWN0RmF1bHQ6bm9ybWFsIi8+JiN4YTs8L2c+JiN4YTs8ZyBjbGFzcz0ic2MtZFdJTkdhIGV6ZFlYRyBlZGdlIj4mI3hhOzxwYXRoIGZpbGw9Im5vbmUiIG1hcmtlci1lbmQ9InVybCgjYXJyb3doZWFkKSIgZD0iTTYyMCw0NzkuMDE1MjY3MTc1NTcyNUw2NDMuNjY2NjY2NjY2NjY2Niw0ODMuNTU0Mzg5MzEyOTc3MDRDNjY3LjMzMzMzMzMzMzMzMzQsNDg4LjA5MzUxMTQ1MDM4MTY0LDcxNC42NjY2NjY2NjY2NjY2LDQ5Ny4xNzE3NTU3MjUxOTA4NSw3MzguMzMzMzMzMzMzMzMzNCw1MTAuMDg1ODc3ODYyNTk1NEM3NjIsNTIzLDc2Miw1MzkuNzUsNzYyLDU1Ni41Qzc2Miw1NzMuMjUsNzYyLDU5MCw3NjIsNjA2Ljc1Qzc2Miw2MjMuNSw3NjIsNjQwLjI1LDc2Miw2NTdDNzYyLDY3My43NSw3NjIsNjkwLjUsNzYyLDcwNy4yNUM3NjIsNzI0LDc2Miw3NDAuNzUsNzYyLDc1Ny41Qzc2Miw3NzQuMjUsNzYyLDc5MSw3NjIsODA3Ljc1Qzc2Miw4MjQuNSw3NjIsODQxLjI1LDc2Miw4NThDNzYyLDg3NC43NSw3NjIsODkxLjUsNzY2LjI3MDMxNTA5MTIxMDYsOTA0LjE2NjY2NjY2NjY2NjZDNzcwLjU0MDYzMDE4MjQyMTMsOTE2LjgzMzMzMzMzMzMzMzQsNzc5LjA4MTI2MDM2NDg0MjUsOTI1LjQxNjY2NjY2NjY2NjYsNzgzLjM1MTU3NTQ1NjA1MzEsOTI5LjcwODMzMzMzMzMzMzRMNzg3LjYyMTg5MDU0NzI2MzcsOTM0IiBpZD0ic3RhdGUtUHJlZGljdEZhdWx0OnN0YXRlLU5vdGlmeUZhaWx1cmU6Y2F0Y2g6MCIvPiYjeGE7PGcgdHJhbnNmb3JtPSJ0cmFuc2xhdGUoNzM4LjMzMzMzMzMzMzMzMzQsNTEwLjA4NTg3Nzg2MjU5NTQpIiBjbGFzcz0iZWRnZS1sYWJlbCIgZGF0YS10ZXN0aWQ9ImdyYXBoLVByZWRpY3RGYXVsdC0wIj4mI3hhOzxyZWN0IGNsYXNzPSJzYy1qR3ByUnQgZk12eGNzIiBoZWlnaHQ9IjE2LjUiIHdpZHRoPSI1MCIgeT0iLTguMjUiIHg9Ii0yNSIvPiYjeGE7PHRleHQgY2xhc3M9InNjLWJQeWhxbyBjSUl0VmQgbGFiZWwiPiYjeGE7PHRzcGFuIGFsaWdubWVudC1iYXNlbGluZT0iY2VudHJhbCIgdGV4dC1hbmNob3I9Im1pZGRsZSIgeG1sOnNwYWNlPSJwcmVzZXJ2ZSI+Q2F0Y2ggIzE8L3RzcGFuPiYjeGE7PHRpdGxlPkNhdGNoICMxPC90aXRsZT4mI3hhOzwvdGV4dD4mI3hhOzwvZz4mI3hhOzwvZz4mI3hhOzxnIGNsYXNzPSJzYy1kV0lOR2EgZXpkWVhHIGVkZ2UiPiYjeGE7PHBhdGggZmlsbD0ibm9uZSIgbWFya2VyLWVuZD0idXJsKCNhcnJvd2hlYWQpIiBkPSJNMzg0LjcxMzkzMDM0ODI1ODcsNTgxTDM3OC4wOTQ5NDE5NTY4ODIyLDU4NS4yOTE2NjY2NjY2NjY2QzM3MS40NzU5NTM1NjU1MDU4LDU4OS41ODMzMzMzMzMzMzM0LDM1OC4yMzc5NzY3ODI3NTI4Nyw1OTguMTY2NjY2NjY2NjY2NiwzNTEuNjE4OTg4MzkxMzc2NDMsNjA2Ljc1QzM0NSw2MTUuMzMzMzMzMzMzMzMzNCwzNDUsNjIzLjkxNjY2NjY2NjY2NjYsMzQ1LDYyOC4yMDgzMzMzMzMzMzM0TDM0NSw2MzIuNSIgaWQ9InN0YXRlLVdhaXRGb3JQcmVkaWN0RmF1bHQ6c3RhdGUtR2V0UHJlZGljdEZhdWx0U3RhdHVzOm5vcm1hbCIvPiYjeGE7PC9nPiYjeGE7PGcgY2xhc3M9InNjLWRXSU5HYSBlemRZWEcgZWRnZSI+JiN4YTs8cGF0aCBmaWxsPSJub25lIiBtYXJrZXItZW5kPSJ1cmwoI2Fycm93aGVhZCkiIGQ9Ik0yOTYuNzMxMzQzMjgzNTgyMSw2ODEuNUwyODguMjc2MTE5NDAyOTg1MSw2ODUuNzkxNjY2NjY2NjY2NkMyNzkuODIwODk1NTIyMzg4MDcsNjkwLjA4MzMzMzMzMzMzMzQsMjYyLjkxMDQ0Nzc2MTE5NCw2OTguNjY2NjY2NjY2NjY2NiwyNTQuNDU1MjIzODgwNTk3MDMsNzA3LjI1QzI0Niw3MTUuODMzMzMzMzMzMzMzNCwyNDYsNzI0LjQxNjY2NjY2NjY2NjYsMjQ2LDcyOC43MDgzMzMzMzMzMzM0TDI0Niw3MzMiIGlkPSJzdGF0ZS1HZXRQcmVkaWN0RmF1bHRTdGF0dXM6c3RhdGUtQ2hlY2tQcmVkaWN0RmF1bHRTdGF0dXM6bm9ybWFsIi8+JiN4YTs8L2c+JiN4YTs8ZyBjbGFzcz0ic2MtZFdJTkdhIGV6ZFlYRyBlZGdlIj4mI3hhOzxwYXRoIGZpbGw9Im5vbmUiIG1hcmtlci1lbmQ9InVybCgjYXJyb3doZWFkKSIgZD0iTTQ0Ny4zODgwNTk3MDE0OTI1LDY4MS41TDQ2NS4zMjMzODMwODQ1NzcxLDY4NS43OTE2NjY2NjY2NjY2QzQ4My4yNTg3MDY0Njc2NjE2LDY5MC4wODMzMzMzMzMzMzM0LDUxOS4xMjkzNTMyMzM4MzA4LDY5OC42NjY2NjY2NjY2NjY2LDUzNy4wNjQ2NzY2MTY5MTU0LDcxMS4zMzMzMzMzMzMzMzM0QzU1NSw3MjQsNTU1LDc0MC43NSw1NTUsNzU3LjVDNTU1LDc3NC4yNSw1NTUsNzkxLDU1NSw4MDcuNzVDNTU1LDgyNC41LDU1NSw4NDEuMjUsNTU1LDg1OEM1NTUsODc0Ljc1LDU1NSw4OTEuNSw1NzcuODMzMzMzMzMzMzMzNCw5MDQuMzM5NDk0MTYzNDI0MkM2MDAuNjY2NjY2NjY2NjY2Niw5MTcuMTc4OTg4MzI2ODQ4Myw2NDYuMzMzMzMzMzMzMzMzNCw5MjYuMTA3OTc2NjUzNjk2NSw2NjkuMTY2NjY2NjY2NjY2Niw5MzAuNTcyNDcwODE3MTIwN0w2OTIsOTM1LjAzNjk2NDk4MDU0NDgiIGlkPSJzdGF0ZS1HZXRQcmVkaWN0RmF1bHRTdGF0dXM6c3RhdGUtTm90aWZ5RmFpbHVyZTpjYXRjaDowIi8+JiN4YTs8ZyB0cmFuc2Zvcm09InRyYW5zbGF0ZSg1MzcuMDY0Njc2NjE2OTE1NCw3MTEuMzMzMzMzMzMzMzMzNCkiIGNsYXNzPSJlZGdlLWxhYmVsIiBkYXRhLXRlc3RpZD0iZ3JhcGgtR2V0UHJlZGljdEZhdWx0U3RhdHVzLTAiPiYjeGE7PHJlY3QgY2xhc3M9InNjLWpHcHJSdCBmTXZ4Y3MiIGhlaWdodD0iMTYuNSIgd2lkdGg9IjUwIiB5PSItOC4yNSIgeD0iLTI1Ii8+JiN4YTs8dGV4dCBjbGFzcz0ic2MtYlB5aHFvIGNJSXRWZCBsYWJlbCI+JiN4YTs8dHNwYW4gYWxpZ25tZW50LWJhc2VsaW5lPSJjZW50cmFsIiB0ZXh0LWFuY2hvcj0ibWlkZGxlIiB4bWw6c3BhY2U9InByZXNlcnZlIj5DYXRjaCAjMTwvdHNwYW4+JiN4YTs8dGl0bGU+Q2F0Y2ggIzE8L3RpdGxlPiYjeGE7PC90ZXh0PiYjeGE7PC9nPiYjeGE7PC9nPiYjeGE7PGcgY2xhc3M9InNjLWRXSU5HYSBlemRZWEcgZWRnZSI+JiN4YTs8cGF0aCBmaWxsPSJub25lIiBtYXJrZXItZW5kPSJ1cmwoI2Fycm93aGVhZCkiIGQ9Ik0xOTEuODgwNTk3MDE0OTI1MzcsNzgyTDE4Mi40MDA0OTc1MTI0Mzc4Miw3ODYuMjkxNjY2NjY2NjY2NkMxNzIuOTIwMzk4MDA5OTUwMjIsNzkwLjU4MzMzMzMzMzMzMzQsMTUzLjk2MDE5OTAwNDk3NTEyLDc5OS4xNjY2NjY2NjY2NjY2LDE0NC40ODAwOTk1MDI0ODc1NSw4MDcuNzVDMTM1LDgxNi4zMzMzMzMzMzMzMzM0LDEzNSw4MjQuOTE2NjY2NjY2NjY2NiwxMzUsODI5LjIwODMzMzMzMzMzMzRMMTM1LDgzMy41IiBpZD0ic3RhdGUtQ2hlY2tQcmVkaWN0RmF1bHRTdGF0dXM6c3RhdGUtTm90aWZ5U3VjY2VzczpjaG9pY2VSdWxlOjAiLz4mI3hhOzxnIHRyYW5zZm9ybT0idHJhbnNsYXRlKDE0NC40ODAwOTk1MDI0ODc1NSw4MDcuNzUpIiBjbGFzcz0iZWRnZS1sYWJlbCIgZGF0YS10ZXN0aWQ9ImdyYXBoLUNoZWNrUHJlZGljdEZhdWx0U3RhdHVzLTAiPiYjeGE7PHJlY3QgY2xhc3M9InNjLWpHcHJSdCBmTXZ4Y3MiIGhlaWdodD0iMTYuNSIgd2lkdGg9IjE5MiIgeT0iLTguMjUiIHg9Ii05NiIvPiYjeGE7PHRleHQgY2xhc3M9InNjLWJQeWhxbyBjSUl0VmQgbGFiZWwiPiYjeGE7PHRzcGFuIGFsaWdubWVudC1iYXNlbGluZT0iY2VudHJhbCIgdGV4dC1hbmNob3I9Im1pZGRsZSIgeG1sOnNwYWNlPSJwcmVzZXJ2ZSI+JC5wcmVkaWN0X3N0YXR1cy5zdGF0dXMgPT0gIlNVQ0NFRURFRCI8L3RzcGFuPiYjeGE7PHRpdGxlPiQucHJlZGljdF9zdGF0dXMuc3RhdHVzID09ICJTVUNDRUVERUQiPC90aXRsZT4mI3hhOzwvdGV4dD4mI3hhOzwvZz4mI3hhOzwvZz4mI3hhOzxnIGNsYXNzPSJzYy1kV0lOR2EgZXpkWVhHIGVkZ2UiPiYjeGE7PHBhdGggZmlsbD0ibm9uZSIgbWFya2VyLWVuZD0idXJsKCNhcnJvd2hlYWQpIiBkPSJNMzAwLjExOTQwMjk4NTA3NDY2LDc4MkwzMDkuNTk5NTAyNDg3NTYyMjMsNzg2LjI5MTY2NjY2NjY2NjZDMzE5LjA3OTYwMTk5MDA0OTc1LDc5MC41ODMzMzMzMzMzMzM0LDMzOC4wMzk4MDA5OTUwMjQ5LDc5OS4xNjY2NjY2NjY2NjY2LDM0Ny41MTk5MDA0OTc1MTI1LDgxMS44MzMzMzMzMzMzMzM0QzM1Nyw4MjQuNSwzNTcsODQxLjI1LDM1Nyw4NThDMzU3LDg3NC43NSwzNTcsODkxLjUsNDEyLjgzMzMzMzMzMzMzMzMsOTA2LjA0MTIwODc5MTIwODhDNDY4LjY2NjY2NjY2NjY2NjcsOTIwLjU4MjQxNzU4MjQxNzYsNTgwLjMzMzMzMzMzMzMzMzQsOTMyLjkxNDgzNTE2NDgzNTIsNjM2LjE2NjY2NjY2NjY2NjYsOTM5LjA4MTA0Mzk1NjA0NEw2OTIsOTQ1LjI0NzI1Mjc0NzI1MjgiIGlkPSJzdGF0ZS1DaGVja1ByZWRpY3RGYXVsdFN0YXR1czpzdGF0ZS1Ob3RpZnlGYWlsdXJlOmNob2ljZVJ1bGU6MSIvPiYjeGE7PGcgdHJhbnNmb3JtPSJ0cmFuc2xhdGUoMzQ3LjUxOTkwMDQ5NzUxMjUsODExLjgzMzMzMzMzMzMzMzQpIiBjbGFzcz0iZWRnZS1sYWJlbCIgZGF0YS10ZXN0aWQ9ImdyYXBoLUNoZWNrUHJlZGljdEZhdWx0U3RhdHVzLTEiPiYjeGE7PHJlY3QgY2xhc3M9InNjLWpHcHJSdCBmTXZ4Y3MiIGhlaWdodD0iMTYuNSIgd2lkdGg9IjE2OCIgeT0iLTguMjUiIHg9Ii04NCIvPiYjeGE7PHRleHQgY2xhc3M9InNjLWJQeWhxbyBjSUl0VmQgbGFiZWwiPiYjeGE7PHRzcGFuIGFsaWdubWVudC1iYXNlbGluZT0iY2VudHJhbCIgdGV4dC1hbmNob3I9Im1pZGRsZSIgeG1sOnNwYWNlPSJwcmVzZXJ2ZSI+JC5wcmVkaWN0X3N0YXR1cy5zdGF0dXMgPT0gIkZBSUxFRCI8L3RzcGFuPiYjeGE7PHRpdGxlPiQucHJlZGljdF9zdGF0dXMuc3RhdHVzID09ICJGQUlMRUQiPC90aXRsZT4mI3hhOzwvdGV4dD4mI3hhOzwvZz4mI3hhOzwvZz4mI3hhOzxnIGNsYXNzPSJzYy1kV0lOR2EgZXpkWVhHIGVkZ2UiPiYjeGE7PHBhdGggZmlsbD0ibm9uZSIgbWFya2VyLWVuZD0idXJsKCNhcnJvd2hlYWQpIiBkPSJNMzY2LDc0Mi40ODEzMjAwNDk4MTMyTDQxMi45MTY2NjY2NjY2NjY3LDczNi42MDk0MzMzNzQ4NDQzQzQ1OS44MzMzMzMzMzMzMzMzLDczMC43Mzc1NDY2OTk4NzU2LDU1My42NjY2NjY2NjY2NjY2LDcxOC45OTM3NzMzNDk5Mzc4LDYwMC41ODMzMzMzMzMzMzM0LDcwNC43NDY4ODY2NzQ5NjlDNjQ3LjUsNjkwLjUsNjQ3LjUsNjczLjc1LDY0Ny41LDY1N0M2NDcuNSw2NDAuMjUsNjQ3LjUsNjIzLjUsNjI4LjI4MzU4MjA4OTU1MjIsNjEwLjgzMzMzMzMzMzMzMzRDNjA5LjA2NzE2NDE3OTEwNDUsNTk4LjE2NjY2NjY2NjY2NjYsNTcwLjYzNDMyODM1ODIwOSw1ODkuNTgzMzMzMzMzMzMzNCw1NTEuNDE3OTEwNDQ3NzYxMiw1ODUuMjkxNjY2NjY2NjY2Nkw1MzIuMjAxNDkyNTM3MzEzNSw1ODEiIGlkPSJzdGF0ZS1DaGVja1ByZWRpY3RGYXVsdFN0YXR1czpzdGF0ZS1XYWl0Rm9yUHJlZGljdEZhdWx0OmNob2ljZURlZmF1bHQiLz4mI3hhOzxnIHRyYW5zZm9ybT0idHJhbnNsYXRlKDYwMC41ODMzMzMzMzMzMzM0LDcwNC43NDY4ODY2NzQ5NjkpIiBjbGFzcz0iZWRnZS1sYWJlbCIgZGF0YS10ZXN0aWQ9ImdyYXBoLUNoZWNrUHJlZGljdEZhdWx0U3RhdHVzLURlZmF1bHQiPiYjeGE7PHJlY3QgY2xhc3M9InNjLWpHcHJSdCBmTXZ4Y3MiIGhlaWdodD0iMTYuNSIgd2lkdGg9IjQ0IiB5PSItOC4yNSIgeD0iLTIyIi8+JiN4YTs8dGV4dCBjbGFzcz0ic2MtYlB5aHFvIGNJSXRWZCBsYWJlbCI+JiN4YTs8dHNwYW4gYWxpZ25tZW50LWJhc2VsaW5lPSJjZW50cmFsIiB0ZXh0LWFuY2hvcj0ibWlkZGxlIiB4bWw6c3BhY2U9InByZXNlcnZlIj5EZWZhdWx0PC90c3Bhbj4mI3hhOzx0aXRsZT5EZWZhdWx0PC90aXRsZT4mI3hhOzwvdGV4dD4mI3hhOzwvZz4mI3hhOzwvZz4mI3hhOzxnIGNsYXNzPSJzYy1kV0lOR2EgZXpkWVhHIGVkZ2UiPiYjeGE7PHBhdGggZmlsbD0ibm9uZSIgbWFya2VyLWVuZD0idXJsKCNhcnJvd2hlYWQpIiBkPSJNMTI3LjY4NjU2NzE2NDE3OTExLDg4Mi41TDEyNi40MDU0NzI2MzY4MTU5Myw4ODYuNzkxNjY2NjY2NjY2NkMxMjUuMTI0Mzc4MTA5NDUyNzMsODkxLjA4MzMzMzMzMzMzMzQsMTIyLjU2MjE4OTA1NDcyNjM3LDg5OS42NjY2NjY2NjY2NjY2LDEyMS4yODEwOTQ1MjczNjMxOCw5MTIuMzMzMzMzMzMzMzMzNEMxMjAsOTI1LDEyMCw5NDEuNzUsMTIwLDk1Ny4xMjVDMTIwLDk3Mi41LDEyMCw5ODYuNSwxMjAsOTk2LjQxNjY2NjY2NjY2NjZDMTIwLDEwMDYuMzMzMzMzMzMzMzMzNCwxMjAsMTAxMi4xNjY2NjY2NjY2NjY2LDEyMCwxMDE1LjA4MzMzMzMzMzMzMzRMMTIwLDEwMTgiIGlkPSJzdGF0ZS1Ob3RpZnlTdWNjZXNzOnN0YXRlLVN1Y2Nlc3M6bm9ybWFsIi8+JiN4YTs8L2c+JiN4YTs8ZyBjbGFzcz0ic2MtZFdJTkdhIGV6ZFlYRyBlZGdlIj4mI3hhOzxwYXRoIGZpbGw9Im5vbmUiIG1hcmtlci1lbmQ9InVybCgjYXJyb3doZWFkKSIgZD0iTTE2OS42MTY5MTU0MjI4ODU1Nyw4ODIuNUwxNzUuNjgwNzYyODUyNDA0NjMsODg2Ljc5MTY2NjY2NjY2NjZDMTgxLjc0NDYxMDI4MTkyMzY4LDg5MS4wODMzMzMzMzMzMzM0LDE5My44NzIzMDUxNDA5NjE4Niw4OTkuNjY2NjY2NjY2NjY2NiwyODAuOTM2MTUyNTcwNDgwOTQsOTEwLjY3NDkxNzQ5MTc0OTJDMzY4LDkyMS42ODMxNjgzMTY4MzE3LDUzMCw5MzUuMTE2MzM2NjMzNjYzMyw2MTEsOTQxLjgzMjkyMDc5MjA3OTJMNjkyLDk0OC41NDk1MDQ5NTA0OTUiIGlkPSJzdGF0ZS1Ob3RpZnlTdWNjZXNzOnN0YXRlLU5vdGlmeUZhaWx1cmU6Y2F0Y2g6MCIvPiYjeGE7PGcgdHJhbnNmb3JtPSJ0cmFuc2xhdGUoMjgwLjkzNjE1MjU3MDQ4MDk0LDkxMC42NzQ5MTc0OTE3NDkyKSIgY2xhc3M9ImVkZ2UtbGFiZWwiIGRhdGEtdGVzdGlkPSJncmFwaC1Ob3RpZnlTdWNjZXNzLTAiPiYjeGE7PHJlY3QgY2xhc3M9InNjLWpHcHJSdCBmTXZ4Y3MiIGhlaWdodD0iMTYuNSIgd2lkdGg9IjUwIiB5PSItOC4yNSIgeD0iLTI1Ii8+JiN4YTs8dGV4dCBjbGFzcz0ic2MtYlB5aHFvIGNJSXRWZCBsYWJlbCI+JiN4YTs8dHNwYW4gYWxpZ25tZW50LWJhc2VsaW5lPSJjZW50cmFsIiB0ZXh0LWFuY2hvcj0ibWlkZGxlIiB4bWw6c3BhY2U9InByZXNlcnZlIj5DYXRjaCAjMTwvdHNwYW4+JiN4YTs8dGl0bGU+Q2F0Y2ggIzE8L3RpdGxlPiYjeGE7PC90ZXh0PiYjeGE7PC9nPiYjeGE7PC9nPiYjeGE7PGcgY2xhc3M9InNjLWRXSU5HYSBlemRZWEcgZWRnZSI+JiN4YTs8cGF0aCBmaWxsPSJub25lIiBtYXJrZXItZW5kPSJ1cmwoI2Fycm93aGVhZCkiIGQ9Ik0xMjAsMTA2N0wxMjAsMTA2OS45MTY2NjY2NjY2NjY3QzEyMCwxMDcyLjgzMzMzMzMzMzMzMzMsMTIwLDEwNzguNjY2NjY2NjY2NjY2NywxNzkuNjg2MzE2ODM2NjM2MSwxMDg3Ljc4NzU2ODg5OTI0N0MyMzkuMzcyNjMzNjczMjcyMiwxMDk2LjkwODQ3MTEzMTgyNzEsMzU4Ljc0NTI2NzM0NjU0NDQsMTEwOS4zMTY5NDIyNjM2NTQsNDE4LjQzMTU4NDE4MzE4MDUsMTExNS41MjExNzc4Mjk1Njc1TDQ3OC4xMTc5MDEwMTk4MTY2LDExMjEuNzI1NDEzMzk1NDgxIiBpZD0ic3RhdGUtU3VjY2VzczplbmQ6bm9ybWFsIi8+JiN4YTs8L2c+JiN4YTs8ZyBjbGFzcz0ic2MtZFdJTkdhIGV6ZFlYRyBlZGdlIj4mI3hhOzxwYXRoIGZpbGw9Im5vbmUiIG1hcmtlci1lbmQ9InVybCgjYXJyb3doZWFkKSIgZD0iTTgxMiw5ODNMODEyLDk4NS45MTY2NjY2NjY2NjY2QzgxMiw5ODguODMzMzMzMzMzMzMzNCw4MTIsOTk0LjY2NjY2NjY2NjY2NjYsODEyLDEwMDAuNUM4MTIsMTAwNi4zMzMzMzMzMzMzMzM0LDgxMiwxMDEyLjE2NjY2NjY2NjY2NjYsODEyLDEwMTUuMDgzMzMzMzMzMzMzNEw4MTIsMTAxOCIgaWQ9InN0YXRlLU5vdGlmeUZhaWx1cmU6c3RhdGUtRmFpbDpub3JtYWwiLz4mI3hhOzwvZz4mI3hhOzxnIGNsYXNzPSJzYy1kV0lOR2EgZXpkWVhHIGVkZ2UiPiYjeGE7PHBhdGggZmlsbD0ibm9uZSIgbWFya2VyLWVuZD0idXJsKCNhcnJvd2hlYWQpIiBkPSJNODEyLDEwNjdMODEyLDEwNjkuOTE2NjY2NjY2NjY2N0M4MTIsMTA3Mi44MzMzMzMzMzMzMzMzLDgxMiwxMDc4LjY2NjY2NjY2NjY2NjcsNzYzLjYzNzYzMDIwNTcyODIsMTA4Ny43MDYxMzMzNTUzNjQ1QzcxNS4yNzUyNjA0MTE0NTYyLDEwOTYuNzQ1NjAwMDQ0MDYyNSw2MTguNTUwNTIwODIyOTEyNSwxMTA4Ljk5MTIwMDA4ODEyNDcsNTcwLjE4ODE1MTAyODY0MDYsMTExNS4xMTQwMDAxMTAxNTZMNTIxLjgyNTc4MTIzNDM2ODcsMTEyMS4yMzY4MDAxMzIxODcyIiBpZD0ic3RhdGUtRmFpbDplbmQ6bm9ybWFsIi8+JiN4YTs8L2c+JiN4YTs8L2c+JiN4YTs8ZGVmcz4mI3hhOzxtYXJrZXIgY2xhc3M9InNjLWNhWFZCdCBmRk5vTUwiIG9yaWVudD0iYXV0byIgcmVmWT0iMyIgcmVmWD0iNyIgbWFya2VySGVpZ2h0PSI2IiBtYXJrZXJXaWR0aD0iOCIgaWQ9ImFycm93aGVhZCI+JiN4YTs8cG9seWdvbiBwb2ludHM9IjAgMCwgOCAzLCAwIDYiLz4mI3hhOzwvbWFya2VyPiYjeGE7PG1hcmtlciBjbGFzcz0ic2MtY2FYVkJ0IGZGTm9NTCIgb3JpZW50PSJhdXRvIiByZWZZPSIyIiByZWZYPSI1IiBtYXJrZXJIZWlnaHQ9IjQiIG1hcmtlcldpZHRoPSI2IiBpZD0iaGlnaGxpZ2h0ZWQtYXJyb3doZWFkIj4mI3hhOzxwb2x5Z29uIHBvaW50cz0iMCAwLCA2IDIsIDAgNCIvPiYjeGE7PC9tYXJrZXI+JiN4YTs8bWFya2VyIGNsYXNzPSJzYy1jYVhWQnQgZkZOb01MIiBvcmllbnQ9ImF1dG8iIHJlZlk9IjIiIHJlZlg9IjUiIG1hcmtlckhlaWdodD0iNCIgbWFya2VyV2lkdGg9IjYiIGlkPSJlcnJvci1hcnJvd2hlYWQiPiYjeGE7PHBvbHlnb24gcG9pbnRzPSIwIDAsIDYgMiwgMCA0Ii8+JiN4YTs8L21hcmtlcj4mI3hhOzxtYXJrZXIgY2xhc3M9InNjLWNhWFZCdCBmRk5vTUwiIG9yaWVudD0iYXV0byIgcmVmWT0iNCIgcmVmWD0iOSIgbWFya2VySGVpZ2h0PSI4IiBtYXJrZXJXaWR0aD0iMTAiIGlkPSJsYXJnZS1hcnJvd2hlYWQiPiYjeGE7PHBvbHlnb24gcG9pbnRzPSIwIDAsIDEwIDQsIDAgOCIvPiYjeGE7PC9tYXJrZXI+JiN4YTs8bWFya2VyIGNsYXNzPSJzYy1jYVhWQnQgZkZOb01MIiBvcmllbnQ9ImF1dG8iIHJlZlk9IjIiIHJlZlg9IjQuNSIgbWFya2VySGVpZ2h0PSI0IiBtYXJrZXJXaWR0aD0iNS41IiBpZD0ibGFyZ2UtaGlnaGxpZ2h0ZWQtYXJyb3doZWFkIj4mI3hhOzxwb2x5Z29uIHBvaW50cz0iMCAwLCA1LjUgMiwgMCA0Ii8+JiN4YTs8L21hcmtlcj4mI3hhOzxtYXJrZXIgY2xhc3M9InNjLWNhWFZCdCBmRk5vTUwiIG9yaWVudD0iYXV0byIgcmVmWT0iNCIgcmVmWD0iOSIgbWFya2VySGVpZ2h0PSI4IiBtYXJrZXJXaWR0aD0iMTAiIGlkPSJsYXJnZS1lcnJvci1hcnJvd2hlYWQiPiYjeGE7PHBvbHlnb24gcG9pbnRzPSIwIDAsIDEwIDQsIDAgOCIvPiYjeGE7PC9tYXJrZXI+JiN4YTs8bGluZWFyR3JhZGllbnQgaWQ9ImdyYWRpZW50LW9yYW5nZSIgeTI9IjAlIiB4Mj0iMTAwJSIgeTE9IjEwMCUiIHgxPSIwJSI+JiN4YTs8c3RvcCBvZmZzZXQ9IjAlIiBzdG9wLWNvbG9yPSIjQzg1MTFCIi8+JiN4YTs8c3RvcCBvZmZzZXQ9IjEwMCUiIHN0b3AtY29sb3I9IiNGRjk5MDAiLz4mI3hhOzwvbGluZWFyR3JhZGllbnQ+JiN4YTs8bGluZWFyR3JhZGllbnQgaWQ9ImdyYWRpZW50LXR1cnF1b2lzZSIgeTI9IjAlIiB4Mj0iMTAwJSIgeTE9IjEwMCUiIHgxPSIwJSI+JiN4YTs8c3RvcCBvZmZzZXQ9IjAlIiBzdG9wLWNvbG9yPSIjMDU1RjRFIi8+JiN4YTs8c3RvcCBvZmZzZXQ9IjEwMCUiIHN0b3AtY29sb3I9IiM1NkMwQTciLz4mI3hhOzwvbGluZWFyR3JhZGllbnQ+JiN4YTs8bGluZWFyR3JhZGllbnQgaWQ9ImdyYWRpZW50LWJsdWUiIHkyPSIwJSIgeDI9IjEwMCUiIHkxPSIxMDAlIiB4MT0iMCUiPiYjeGE7PHN0b3Agb2Zmc2V0PSIwJSIgc3RvcC1jb2xvcj0iIzJFMjdBRCIvPiYjeGE7PHN0b3Agb2Zmc2V0PSIxMDAlIiBzdG9wLWNvbG9yPSIjNTI3RkZGIi8+JiN4YTs8L2xpbmVhckdyYWRpZW50PiYjeGE7PGxpbmVhckdyYWRpZW50IGlkPSJncmFkaWVudC1waW5rIiB5Mj0iMCUiIHgyPSIxMDAlIiB5MT0iMTAwJSIgeDE9IjAlIj4mI3hhOzxzdG9wIG9mZnNldD0iMCUiIHN0b3AtY29sb3I9IiNCMDA4NEQiLz4mI3hhOzxzdG9wIG9mZnNldD0iMTAwJSIgc3RvcC1jb2xvcj0iI0ZGNEY4QiIvPiYjeGE7PC9saW5lYXJHcmFkaWVudD4mI3hhOzxsaW5lYXJHcmFkaWVudCBpZD0iZ3JhZGllbnQtcmVkIiB5Mj0iMCUiIHgyPSIxMDAlIiB5MT0iMTAwJSIgeDE9IjAlIj4mI3hhOzxzdG9wIG9mZnNldD0iMCUiIHN0b3AtY29sb3I9IiNCRDA4MTYiLz4mI3hhOzxzdG9wIG9mZnNldD0iMTAwJSIgc3RvcC1jb2xvcj0iI0ZGNTI1MiIvPiYjeGE7PC9saW5lYXJHcmFkaWVudD4mI3hhOzxsaW5lYXJHcmFkaWVudCBpZD0iZ3JhZGllbnQtZ3JlZW4iIHkyPSIwJSIgeDI9IjEwMCUiIHkxPSIxMDAlIiB4MT0iMCUiPiYjeGE7PHN0b3Agb2Zmc2V0PSIwJSIgc3RvcC1jb2xvcj0iIzFCNjYwRiIvPiYjeGE7PHN0b3Agb2Zmc2V0PSIxMDAlIiBzdG9wLWNvbG9yPSIjNkNBRTNFIi8+JiN4YTs8L2xpbmVhckdyYWRpZW50PiYjeGE7PGxpbmVhckdyYWRpZW50IGlkPSJncmFkaWVudC1wdXJwbGUiIHkyPSIwJSIgeDI9IjEwMCUiIHkxPSIxMDAlIiB4MT0iMCUiPiYjeGE7PHN0b3Agb2Zmc2V0PSIwJSIgc3RvcC1jb2xvcj0iIzREMjdBOCIvPiYjeGE7PHN0b3Agb2Zmc2V0PSIxMDAlIiBzdG9wLWNvbG9yPSIjQTE2NkZGIi8+JiN4YTs8L2xpbmVhckdyYWRpZW50PiYjeGE7PGxpbmVhckdyYWRpZW50IGlkPSJncmFkaWVudC1ncmV5IiB5Mj0iMCUiIHgyPSIxMDAlIiB5MT0iMTAwJSIgeDE9IjAlIj4mI3hhOzxzdG9wIG9mZnNldD0iMCUiIHN0b3AtY29sb3I9IiNEQ0RDREMiLz4mI3hhOzxzdG9wIG9mZnNldD0iMTAwJSIgc3RvcC1jb2xvcj0iI0Y2RjVGNyIvPiYjeGE7PC9saW5lYXJHcmFkaWVudD4sPGxpbmVhckdyYWRpZW50IGlkPSJncmFkaWVudC1hZyIgeTI9IjAlIiB4Mj0iMTAwJSIgeTE9IjEwMCUiIHgxPSIwJSI+JiN4YTs8c3RvcCBvZmZzZXQ9IjAlIiBzdG9wLWNvbG9yPSIjQkMxMzU2Ii8+JiN4YTs8c3RvcCBvZmZzZXQ9IjEwMCUiIHN0b3AtY29sb3I9IiNGMzQ0ODIiLz4mI3hhOzwvbGluZWFyR3JhZGllbnQ+JiN4YTs8bGluZWFyR3JhZGllbnQgaWQ9ImdyYWRpZW50LWF0aGVuYSIgeTI9IjAlIiB4Mj0iMTAwJSIgeTE9IjEwMCUiIHgxPSIwJSI+JiN4YTs8c3RvcCBvZmZzZXQ9IjAlIiBzdG9wLWNvbG9yPSIjNTkzMEI1Ii8+JiN4YTs8c3RvcCBvZmZzZXQ9IjEwMCUiIHN0b3AtY29sb3I9IiM5NDVERjIiLz4mI3hhOzwvbGluZWFyR3JhZGllbnQ+JiN4YTs8bGluZWFyR3JhZGllbnQgaWQ9ImdyYWRpZW50LWVtciIgeTI9IjAlIiB4Mj0iMTAwJSIgeTE9IjEwMCUiIHgxPSIwJSI+JiN4YTs8c3RvcCBvZmZzZXQ9IjAlIiBzdG9wLWNvbG9yPSIjNTkzMEI1Ii8+JiN4YTs8c3RvcCBvZmZzZXQ9IjEwMCUiIHN0b3AtY29sb3I9IiM5NDVERjIiLz4mI3hhOzwvbGluZWFyR3JhZGllbnQ+JiN4YTs8bGluZWFyR3JhZGllbnQgaWQ9ImdyYWRpZW50LWdsdWUiIHkyPSIwJSIgeDI9IjEwMCUiIHkxPSIxMDAlIiB4MT0iMCUiPiYjeGE7PHN0b3Agb2Zmc2V0PSIwJSIgc3RvcC1jb2xvcj0iIzU5MzBCNSIvPiYjeGE7PHN0b3Agb2Zmc2V0PSIxMDAlIiBzdG9wLWNvbG9yPSIjOTQ1REYyIi8+JiN4YTs8L2xpbmVhckdyYWRpZW50PiYjeGE7PGxpbmVhckdyYWRpZW50IGlkPSJncmFkaWVudC1zbnMiIHkyPSIwJSIgeDI9IjEwMCUiIHkxPSIxMDAlIiB4MT0iMCUiPiYjeGE7PHN0b3Agb2Zmc2V0PSIwJSIgc3RvcC1jb2xvcj0iI0JDMTM1NiIvPiYjeGE7PHN0b3Agb2Zmc2V0PSIxMDAlIiBzdG9wLWNvbG9yPSIjRjM0NDgyIi8+JiN4YTs8L2xpbmVhckdyYWRpZW50PiYjeGE7PGxpbmVhckdyYWRpZW50IGlkPSJncmFkaWVudC1zdGF0ZXMiIHkyPSIwJSIgeDI9IjEwMCUiIHkxPSIxMDAlIiB4MT0iMCUiPiYjeGE7PHN0b3Agb2Zmc2V0PSIwJSIgc3RvcC1jb2xvcj0iI0JDMTM1NiIvPiYjeGE7PHN0b3Agb2Zmc2V0PSIxMDAlIiBzdG9wLWNvbG9yPSIjRjM0NDgyIi8+JiN4YTs8L2xpbmVhckdyYWRpZW50PiYjeGE7PGxpbmVhckdyYWRpZW50IGlkPSJncmFkaWVudC1nZW5lcmljIiB5Mj0iMCUiIHgyPSIxMDAlIiB5MT0iMTAwJSIgeDE9IjAlIj4mI3hhOzxzdG9wIG9mZnNldD0iMCUiIHN0b3AtY29sb3I9IiNjY2MiLz4mI3hhOzxzdG9wIG9mZnNldD0iMTAwJSIgc3RvcC1jb2xvcj0iI2RkZCIvPiYjeGE7PC9saW5lYXJHcmFkaWVudD4mI3hhOzxnIGlkPSJpY29uLWZsb3ctd2FpdCIgZmlsbC1ydWxlPSJldmVub2RkIiBmaWxsPSJub25lIiBzdHJva2Utd2lkdGg9IjEiIHN0cm9rZT0ibm9uZSI+JiN4YTs8cGF0aCBmaWxsLXJ1bGU9Im5vbnplcm8iIGZpbGw9IiMwMDczQkIiIGQ9Ik0yNi43NSw4Ljg1ODI1ODkzIEwyNi43NSwxMC4zNTgyNTg5IEwyNSwxMC4zNTgyNTg5IEwyNS4wMDEwMzMyLDEzLjI4ODcxODYgQzI3LjIzOTU2NDMsMTMuNDYyNTcwNCAyOS4zMTU5MjY5LDE0LjIxNDUyNzggMzEuMDgwOTkwMywxNS4zOTU0NTk4IEwzMi4zMTg4NDI0LDEzLjY5MTI3MTEgTDM0Ljc0NTg5MzQsMTUuNDU0NjI2OSBMMzMuMzY4Mjg4MSwxNy4zNTEzNDE5IEMzNS40Njc0NDgzLDE5LjYyNDA0MzEgMzYuNzUsMjIuNjYyMjQzNiAzNi43NSwyNiBDMzYuNzUsMzMuMDQxNjMwNiAzMS4wNDE2MzA2LDM4Ljc1IDI0LDM4Ljc1IEMxNi45NTgzNjk0LDM4Ljc1IDExLjI1LDMzLjA0MTYzMDYgMTEuMjUsMjYgQzExLjI1LDIyLjc2NTc2MjcgMTIuNDU0MjI5OCwxOS44MTI3ODg0IDE0LjQzODc2ODUsMTcuNTY0OTk3NyBMMTIuOTA0Nzk2NiwxNS40NTQ2MjY5IEwxNS4zMzE4NDc2LDEzLjY5MTI3MTEgTDE2LjY4NTg4MTIsMTUuNTU1MTk3IEMxOC4yMzg3NTIyLDE0LjQ2NTc2MjkgMjAuMDQ1NjcwNCwxMy43MTM4MzM2IDIyLjAwMDEwNjgsMTMuNDA1OTM4NCBMMjIsMTAuMzU4MjU4OSBMMjAuMjUsMTAuMzU4MjU4OSBMMjAuMjUsOC44NTgyNTg5MyBMMjYuNzUsOC44NTgyNTg5MyBaIE0yNCwxNC43NSBDMTcuNzg2Nzk2NiwxNC43NSAxMi43NSwxOS43ODY3OTY2IDEyLjc1LDI2IEMxMi43NSwzMi4yMTMyMDM0IDE3Ljc4Njc5NjYsMzcuMjUgMjQsMzcuMjUgQzMwLjIxMzIwMzQsMzcuMjUgMzUuMjUsMzIuMjEzMjAzNCAzNS4yNSwyNiBDMzUuMjUsMTkuNzg2Nzk2NiAzMC4yMTMyMDM0LDE0Ljc1IDI0LDE0Ljc1IFogTTI0LjQ2NjY2NDgsMTkuMzQ1MjE0OCBMMjQuNDY2LDI2LjQ5OSBMMzAuOTM4NzIwNywyNi40OTkzMDM0IEwzMC45Mzg3MjA3LDI3Ljk5OTMwMzQgTDIzLjcxNjY2NDgsMjcuOTk5MzAzNCBDMjMuMzM2OTY5LDI3Ljk5OTMwMzQgMjMuMDIzMTczOCwyNy43MTcxNDk1IDIyLjk3MzUxMTQsMjcuMzUxMDczOSBMMjIuOTY2NjY0OCwyNy4yNDkzMDM0IEwyMi45NjY2NjQ4LDE5LjM0NTIxNDggTDI0LjQ2NjY2NDgsMTkuMzQ1MjE0OCBaIi8+JiN4YTs8L2c+JiN4YTs8ZyBpZD0iaWNvbi1mbG93LWNob2ljZSIgZmlsbC1ydWxlPSJldmVub2RkIiBmaWxsPSJub25lIiBzdHJva2Utd2lkdGg9IjEiIHN0cm9rZT0ibm9uZSI+JiN4YTs8ZyBmaWxsLXJ1bGU9Im5vbnplcm8iIGZpbGw9IiMwMDczQkIiIHRyYW5zZm9ybT0idHJhbnNsYXRlKDkuMjUyMDIwLCA4LjcyOTE4NSkiPiYjeGE7PHBhdGggZD0iTTEzLjcxNzY1MDMsMC4yMTk2Njk5MTQgQzEzLjk4MzkxNjgsLTAuMDQ2NTk2NjQ4NCAxNC40MDA1ODA1LC0wLjA3MDgwMjY5OTYgMTQuNjk0MTkyLDAuMTQ3MDUxNzYxIEwxNC43NzgzMTA0LDAuMjE5NjY5OTE0IEwyNi43OTkxMjU3LDEyLjI0MDQ4NTIgQzI3LjA2NTM5MjMsMTIuNTA2NzUxOCAyNy4wODk1OTgzLDEyLjkyMzQxNTQgMjYuODcxNzQzOSwxMy4yMTcwMjY5IEwyNi43OTkxMjU3LDEzLjMwMTE0NTQgTDE5Ljg0OCwyMC4yNTEgTDI3LjA2MywyNy41OCBMMjcuMDYzNTQ0MywyNC40NzI1NDM3IEMyNy4wNjM1NDQzLDI0LjA1ODMzMDIgMjcuMzk5MzMwOCwyMy43MjI1NDM3IDI3LjgxMzU0NDMsMjMuNzIyNTQzNyBDMjguMTkwMTAyMSwyMy43MjI1NDM3IDI4LjUwMTg0NDEsMjQuMDAwMDUzMiAyOC41NTU0MTI0LDI0LjM2MTcxNDIgTDI4LjU2MzU0NDMsMjQuNDcyNTQzNyBMMjguNTYzNTQ0MywyOS40MjIyOTEyIEMyOC41NjM1NDQzLDI5LjQ3MzU3NDggMjguNTU4Mzk3MSwyOS41MjM2NTYyIDI4LjU0ODU5MTIsMjkuNTcyMDQ2OSBMMjguNTI5MDU2NywyOS42NDc3NzQ1IEwyOC40OTEyMjU5LDI5Ljc0NDAyMjQgTDI4LjQ2NzQ1NTYsMjkuNzg5ODQ3MyBMMjguNDM5OTg0OCwyOS44MzQ4NDMzIEwyOC4zOTIyODA4LDI5Ljg5OTM2MDkgTDI4LjMyNjY0MTcsMjkuOTY5MzE0NyBMMjguMjkwMzczNCwzMC4wMDEyMjYxIEwyOC4yMTAzNTk4LDMwLjA1ODgzNTYgTDI4LjEzNzI4ODMsMzAuMDk5MDEzMyBMMjguMDQwODk3MywzMC4xMzcyMTEzIEwyNy45MjQzNzM4LDMwLjE2NDE1OTMgQzI3Ljg4NDEzNjIsMzAuMTY5ODEyOSAyNy44NDkxMjk3LDMwLjE3MjI5MTIgMjcuODEzNTQ0MywzMC4xNzIyOTEyIEwyMi44NjM3OTY5LDMwLjE3MjI5MTIgQzIyLjQ0OTU4MzMsMzAuMTcyMjkxMiAyMi4xMTM3OTY5LDI5LjgzNjUwNDggMjIuMTEzNzk2OSwyOS40MjIyOTEyIEMyMi4xMTM3OTY5LDI5LjA0NTczMzQgMjIuMzkxMzA2MywyOC43MzM5OTE0IDIyLjc1Mjk2NzQsMjguNjgwNDIzMSBMMjIuODYzNzk2OSwyOC42NzIyOTEyIEwyNi4wMzIsMjguNjcyIEwxOC43ODcsMjEuMzEyIEwxNC43NzgzMTA0LDI1LjMyMTk2MDYgQzE0LjUxMjA0MzksMjUuNTg4MjI3MiAxNC4wOTUzODAyLDI1LjYxMjQzMzMgMTMuODAxNzY4NywyNS4zOTQ1Nzg4IEwxMy43MTc2NTAzLDI1LjMyMTk2MDYgTDkuNjMsMjEuMjM0IEwyLjM4NiwyOC42NzEgTDUuNjk5NzQ3NDcsMjguNjcyMjkxMiBMNS44MTA1NzY5NywyOC42ODA0MjMxIEM2LjE3MjIzODAyLDI4LjczMzk5MTQgNi40NDk3NDc0NywyOS4wNDU3MzM0IDYuNDQ5NzQ3NDcsMjkuNDIyMjkxMiBDNi40NDk3NDc0NywyOS44MDE5ODcgNi4xNjc1OTM1OSwzMC4xMTU3ODIyIDUuODAxNTE4MDMsMzAuMTY1NDQ0NiBMNS42OTk3NDc0NywzMC4xNzIyOTEyIEwwLjc1LDMwLjE3MjI5MTIgTDAuNjQ1MTc1MTA3LDMwLjE2NTAyMzggTDAuNTcxMzE2MTM0LDMwLjE1MDg3NiBMMC40OTE3NDg5NTMsMzAuMTI2NjQzNyBMMC4zOTk4Mzg1MTQsMzAuMDg1NzAxMiBMMC4zMjM5NTc1MjEsMzAuMDM5NjE2NSBMMC4yNDMxNjk3NTcsMjkuOTc1MTI5IEwwLjE3MDkxMjEzMSwyOS44OTg5MzQ3IEwwLjEwOTk2MTU4NCwyOS44MTM0NTgyIEwwLjA2NTY5NDk5OTEsMjkuNzI5NzA3NCBMMC4wMjk3Mzk2Njk2LDI5LjYzMjA5NDQgTDAuMDA3NjA1NzU4NCwyOS41Mjk0OTQ0IEw2LjY3OTEwMTcyZS0xMywyOS40MjIyOTEyIEw2LjY3OTEwMTcyZS0xMywyNC40NzI1NDM3IEwwLjAwODEzMTkyNTcyLDI0LjM2MTcxNDIgQzAuMDYxNzAwMjM3NiwyNC4wMDAwNTMyIDAuMzczNDQyMjE2LDIzLjcyMjU0MzcgMC43NSwyMy43MjI1NDM3IEMxLjEyOTY5NTc3LDIzLjcyMjU0MzcgMS40NDM0OTA5NiwyNC4wMDQ2OTc2IDEuNDkzMTUzMzgsMjQuMzcwNzczMiBMMS41LDI0LjQ3MjU0MzcgTDEuNDk5LDI3LjQzMyBMOC41NjksMjAuMTc0IEwxLjY5NjgzNDk4LDEzLjMwMTE0NTQgQzEuNDMwNTY4NDIsMTMuMDM0ODc4OCAxLjQwNjM2MjM3LDEyLjYxODIxNTEgMS42MjQyMTY4MywxMi4zMjQ2MDM2IEwxLjY5NjgzNDk4LDEyLjI0MDQ4NTIgTDEzLjcxNzY1MDMsMC4yMTk2Njk5MTQgWiBNMTQuMzUyNzY5NywyMy43MjgzNTYgTDI1LjIwODEzNTUsMTIuNzcwODE1MyBMMTQuMjQ3OTgwMywxLjgxMDY2MDE3IEwzLjI4NzgyNTI0LDEyLjc3MDgxNTMgTDkuNjE2LDE5LjA5OSBMMTQuMzUyNzY5NywyMy43MjgzNTYgWiIvPiYjeGE7PHBhdGggZD0iTTE1LjIzMTk4MDMsMTQuMDQ2ODE1MyBMMTUuMjMxOTgwMywxMy4yNjY4MTUzIEMxNi4wMDMzMTM3LDEyLjg1MDgxNTMgMTYuNTU3OTgwMywxMi40MjE4MTUzIDE2Ljg5NTk4MDMsMTEuOTc5ODE1MyBDMTcuMjMzOTgwMywxMS41Mzc4MTUzIDE3LjQwMjk4MDMsMTEuMDE3ODE1MyAxNy40MDI5ODAzLDEwLjQxOTgxNTMgQzE3LjQwMjk4MDMsOS42NTcxNDg2MSAxNy4xNTE2NDcsOS4wNjEzMTUyOCAxNi42NDg5ODAzLDguNjMyMzE1MjggQzE2LjE0NjMxMzcsOC4yMDMzMTUyOCAxNS40NDg2NDcsNy45ODg4MTUyOCAxNC41NTU5ODAzLDcuOTg4ODE1MjggQzEzLjY5Nzk4MDMsNy45ODg4MTUyOCAxMi44NzQ2NDcsOC4xOTI0ODE5NSAxMi4wODU5ODAzLDguNTk5ODE1MjggTDEyLjA4NTk4MDMsOC41OTk4MTUyOCBMMTIuMDg1OTgwMywxMC4zMjg4MTUzIEMxMi44MzEzMTM3LDkuOTgyMTQ4NjEgMTMuNDk0MzEzNyw5LjgwODgxNTI4IDE0LjA3NDk4MDMsOS44MDg4MTUyOCBDMTQuMzk1NjQ3LDkuODA4ODE1MjggMTQuNjQwNDgwMyw5Ljg3ODE0ODYxIDE0LjgwOTQ4MDMsMTAuMDE2ODE1MyBDMTQuOTc4NDgwMywxMC4xNTU0ODE5IDE1LjA2Mjk4MDMsMTAuMzU5MTQ4NiAxNS4wNjI5ODAzLDEwLjYyNzgxNTMgQzE1LjA2Mjk4MDMsMTAuOTEzODE1MyAxNC45NzYzMTM3LDExLjE2NTE0ODYgMTQuODAyOTgwMywxMS4zODE4MTUzIEMxNC42Mjk2NDcsMTEuNTk4NDgxOSAxNC4zNDM2NDcsMTEuODE1MTQ4NiAxMy45NDQ5ODAzLDEyLjAzMTgxNTMgTDEzLjk0NDk4MDMsMTIuMDMxODE1MyBMMTMuMTkwOTgwMywxMi40MzQ4MTUzIEwxMy4zMzM5ODAzLDE0LjA0NjgxNTMgTDE1LjIzMTk4MDMsMTQuMDQ2ODE1MyBaIE0xNC4zMDg5ODAzLDE3LjQzOTgxNTMgQzE0LjcyNDk4MDMsMTcuNDM5ODE1MyAxNS4wNjA4MTM3LDE3LjMxNDE0ODYgMTUuMzE2NDgwMywxNy4wNjI4MTUzIEMxNS41NzIxNDcsMTYuODExNDgxOSAxNS42OTk5ODAzLDE2LjQ4MjE0ODYgMTUuNjk5OTgwMywxNi4wNzQ4MTUzIEMxNS42OTk5ODAzLDE1LjY2NzQ4MTkgMTUuNTcyMTQ3LDE1LjMzODE0ODYgMTUuMzE2NDgwMywxNS4wODY4MTUzIEMxNS4wNjA4MTM3LDE0LjgzNTQ4MTkgMTQuNzI0OTgwMywxNC43MDk4MTUzIDE0LjMwODk4MDMsMTQuNzA5ODE1MyBDMTMuODkyOTgwMywxNC43MDk4MTUzIDEzLjU1NzE0NywxNC44MzU0ODE5IDEzLjMwMTQ4MDMsMTUuMDg2ODE1MyBDMTMuMDQ1ODEzNywxNS4zMzgxNDg2IDEyLjkxNzk4MDMsMTUuNjY3NDgxOSAxMi45MTc5ODAzLDE2LjA3NDgxNTMgQzEyLjkxNzk4MDMsMTYuNDgyMTQ4NiAxMy4wNDU4MTM3LDE2LjgxMTQ4MTkgMTMuMzAxNDgwMywxNy4wNjI4MTUzIEMxMy41NTcxNDcsMTcuMzE0MTQ4NiAxMy44OTI5ODAzLDE3LjQzOTgxNTMgMTQuMzA4OTgwMywxNy40Mzk4MTUzIFoiLz4mI3hhOzwvZz4mI3hhOzwvZz4mI3hhOzxnIGlkPSJpY29uLWZsb3ctc3VjY2VlZCIgZmlsbC1ydWxlPSJldmVub2RkIiBmaWxsPSJub25lIiBzdHJva2Utd2lkdGg9IjEiIHN0cm9rZT0ibm9uZSI+JiN4YTs8ZyBmaWxsLXJ1bGU9Im5vbnplcm8iIGZpbGw9IiMyQUI1MTIiIHRyYW5zZm9ybT0idHJhbnNsYXRlKDExLjI1MDAwMCwgMTIuMjUwMDAwKSI+JiN4YTs8cGF0aCBkPSJNMTIuNzUsMCBDNS43MDgzNjk0NCwwIDAsNS43MDgzNjk0NCAwLDEyLjc1IEMwLDE5Ljc5MTYzMDYgNS43MDgzNjk0NCwyNS41IDEyLjc1LDI1LjUgQzE5Ljc5MTYzMDYsMjUuNSAyNS41LDE5Ljc5MTYzMDYgMjUuNSwxMi43NSBDMjUuNSw1LjcwODM2OTQ0IDE5Ljc5MTYzMDYsMCAxMi43NSwwIFogTTEyLjc1LDEuNSBDMTguOTYzMjAzNCwxLjUgMjQsNi41MzY3OTY1NiAyNCwxMi43NSBDMjQsMTguOTYzMjAzNCAxOC45NjMyMDM0LDI0IDEyLjc1LDI0IEM2LjUzNjc5NjU2LDI0IDEuNSwxOC45NjMyMDM0IDEuNSwxMi43NSBDMS41LDYuNTM2Nzk2NTYgNi41MzY3OTY1NiwxLjUgMTIuNzUsMS41IFoiLz4mI3hhOzxwYXRoIGQ9Ik0xNy40ODIxNTEsOS4zOTEyMzYxIEMxNy43NzUwNDQyLDkuMDk4MzQyODggMTguMjQ5OTE3OSw5LjA5ODM0Mjg4IDE4LjU0MjgxMTEsOS4zOTEyMzYxIEMxOC44MDkwNzc3LDkuNjU3NTAyNjYgMTguODMzMjgzOCwxMC4wNzQxNjYzIDE4LjYxNTQyOTMsMTAuMzY3Nzc3OCBMMTguNTQyODExMSwxMC40NTE4OTYzIEwxMS4xNTgxOTU4LDE3LjgzNjUxMTcgQzEwLjkwMTM0MjcsMTguMDkzMzY0NyAxMC41MDMwMDM4LDE4LjEyNTgyNDMgMTAuMjEwNDI5NCwxNy45MjkzOTU5IEwxMC4xMTcxNjA5LDE3Ljg1NTQzNjIgTDYuOTgyNTMyMjUsMTQuOTQwODE0MyBDNi42NzkxODcyOCwxNC42NTg3NTk5IDYuNjYxOTI3ODksMTQuMTg0MTk5OSA2Ljk0Mzk4MjMyLDEzLjg4MDg1NDkgQzcuMjAwMzk1NDQsMTMuNjA1MDg2OCA3LjYxNTkwNDA1LDEzLjU2NTc1MyA3LjkxNzIzOTUzLDEzLjc3Mjc5MjEgTDguMDAzOTQxNywxMy44NDIzMDUgTDEwLjYwOCwxNi4yNjQgTDE3LjQ4MjE1MSw5LjM5MTIzNjEgWiIvPiYjeGE7PC9nPiYjeGE7PC9nPiYjeGE7PGcgaWQ9Imljb24tZmxvdy1mYWlsIiBmaWxsLXJ1bGU9ImV2ZW5vZGQiIGZpbGw9Im5vbmUiIHN0cm9rZS13aWR0aD0iMSIgc3Ryb2tlPSJub25lIj4mI3hhOzxnIGZpbGwtcnVsZT0ibm9uemVybyIgZmlsbD0iI0QxMzIxMiIgdHJhbnNmb3JtPSJ0cmFuc2xhdGUoMTEuMjUwMDAwLCAxMi4yNTAwMDApIj4mI3hhOzxwYXRoIGQ9Ik0xMi43NSwwIEM1LjcwODM2OTQ0LDAgMCw1LjcwODM2OTQ0IDAsMTIuNzUgQzAsMTkuNzkxNjMwNiA1LjcwODM2OTQ0LDI1LjUgMTIuNzUsMjUuNSBDMTkuNzkxNjMwNiwyNS41IDI1LjUsMTkuNzkxNjMwNiAyNS41LDEyLjc1IEMyNS41LDUuNzA4MzY5NDQgMTkuNzkxNjMwNiwwIDEyLjc1LDAgWiBNMTIuNzUsMS41IEMxOC45NjMyMDM0LDEuNSAyNCw2LjUzNjc5NjU2IDI0LDEyLjc1IEMyNCwxOC45NjMyMDM0IDE4Ljk2MzIwMzQsMjQgMTIuNzUsMjQgQzYuNTM2Nzk2NTYsMjQgMS41LDE4Ljk2MzIwMzQgMS41LDEyLjc1IEMxLjUsNi41MzY3OTY1NiA2LjUzNjc5NjU2LDEuNSAxMi43NSwxLjUgWiIvPiYjeGE7PHBhdGggZD0iTTE2LjU4MzE0MDMsOC4yMTExNjM3NyBDMTYuODc2NzUxOCw3Ljk5MzMwOTMxIDE3LjI5MzQxNTUsOC4wMTc1MTUzNiAxNy41NTk2ODIsOC4yODM3ODE5MyBDMTcuODI1OTQ4Niw4LjU1MDA0ODQ5IDE3Ljg1MDE1NDcsOC45NjY3MTIxNyAxNy42MzIzMDAyLDkuMjYwMzIzNjYgTDE3LjU1OTY4Miw5LjM0NDQ0MjEgTDEzLjYyMjQ2NCwxMy4yODIxMTIgTDE3LjU1OTY4MiwxNy4yMTk2Njk5IEMxNy44NTI1NzUzLDE3LjUxMjU2MzEgMTcuODUyNTc1MywxNy45ODc0MzY5IDE3LjU1OTY4MiwxOC4yODAzMzAxIEMxNy4yOTM0MTU1LDE4LjU0NjU5NjYgMTYuODc2NzUxOCwxOC41NzA4MDI3IDE2LjU4MzE0MDMsMTguMzUyOTQ4MiBMMTYuNDk5MDIxOSwxOC4yODAzMzAxIEwxMi41NjE0NjQsMTQuMzQzMTEyIEw4LjYyMzc5NDA2LDE4LjI4MDMzMDEgTDguNTM5Njc1NjMsMTguMzUyOTQ4MiBDOC4yNDYwNjQxMywxOC41NzA4MDI3IDcuODI5NDAwNDUsMTguNTQ2NTk2NiA3LjU2MzEzMzg5LDE4LjI4MDMzMDEgQzcuMjk2ODY3MzMsMTguMDE0MDYzNSA3LjI3MjY2MTI4LDE3LjU5NzM5OTggNy40OTA1MTU3NCwxNy4zMDM3ODgzIEw3LjU2MzEzMzg5LDE3LjIxOTY2OTkgTDExLjUwMDQ2NCwxMy4yODIxMTIgTDcuNTYzMTMzODksOS4zNDQ0NDIxIEM3LjI3MDI0MDY3LDkuMDUxNTQ4ODggNy4yNzAyNDA2Nyw4LjU3NjY3NTE0IDcuNTYzMTMzODksOC4yODM3ODE5MyBDNy44Mjk0MDA0NSw4LjAxNzUxNTM2IDguMjQ2MDY0MTMsNy45OTMzMDkzMSA4LjUzOTY3NTYzLDguMjExMTYzNzcgTDguNjIzNzk0MDYsOC4yODM3ODE5MyBMMTIuNTYxNDY0LDEyLjIyMTExMiBMMTYuNDk5MDIxOSw4LjI4Mzc4MTkzIEwxNi41ODMxNDAzLDguMjExMTYzNzcgWiIvPiYjeGE7PC9nPiYjeGE7PC9nPiYjeGE7PGcgaWQ9Imljb24tc2VydmljZS1sYW0iIGZpbGwtcnVsZT0iZXZlbm9kZCIgZmlsbD0ibm9uZSIgc3Ryb2tlLXdpZHRoPSIxIiBzdHJva2U9Im5vbmUiPiYjeGE7PHBvbHlnb24gcG9pbnRzPSIwIDAgNDggMCA0OCA0OCAwIDQ4IiBmaWxsLXJ1bGU9Im5vbnplcm8iIGZpbGw9InVybCgjZ3JhZGllbnQtb3JhbmdlKSIvPiYjeGE7PGcgZmlsbD0iI0ZGRkZGRiIgdHJhbnNmb3JtPSJ0cmFuc2xhdGUoMTEsIDEwKSI+JiN4YTs8cGF0aCBkPSJNMjYuNTg4OTIxMywyNy44OTM3MDg4IEwxOS42OTI1OTQ4LDI3Ljg5MzcwODggQzE5LjQ3NzI3NTIsMjcuODkzMTA3NCAxOS4yODEzOTE2LDI3Ljc3MDY5MTQgMTkuMTg4ODA0NywyNy41Nzg4NjkgTDkuNDM3NjY3NjQsNy40NTY3MzQwNCBMNS4zMTIxODY1OSw3LjQ1NjczNDA0IEM1LjAwMzAzNTk0LDcuNDU2NzM0MDQgNC43NTI0MTk4Myw3LjIwOTQzODIzIDQuNzUyNDE5ODMsNi45MDQzODMzNyBMNC43NTI0MTk4MywwLjgyODUyNjAwNSBDNC43NTI0MTk4MywwLjUyMzQ3MTE1MyA1LjAwMzAzNTk0LDAuMjc2MTc1MzM1IDUuMzEyMTg2NTksMC4yNzYxNzUzMzUgTDEzLjkzMjU5NDgsMC4yNzYxNzUzMzUgQzE0LjE0NzkxNDMsMC4yNzY3NzY3ODggMTQuMzQzNzk3OSwwLjM5OTE5Mjc4NyAxNC40MzYzODQ4LDAuNTkxMDE1MjE3IEwyNC4xNDI3NDA1LDIwLjcxMzE1MDEgTDI2LjU4ODkyMTMsMjAuNzEzMTUwMSBDMjYuODk4MDcxOSwyMC43MTMxNTAxIDI3LjE0ODY4OCwyMC45NjA0NDU5IDI3LjE0ODY4OCwyMS4yNjU1MDA4IEwyNy4xNDg2ODgsMjcuMzQxMzU4MiBDMjcuMTQ4Njg4LDI3LjY0NjQxMyAyNi44OTgwNzE5LDI3Ljg5MzcwODggMjYuNTg4OTIxMywyNy44OTM3MDg4IFogTTIwLjA0NTI0NzgsMjYuNzg5MDA3NSBMMjYuMDI5MTU0NSwyNi43ODkwMDc1IEwyNi4wMjkxNTQ1LDIxLjgxNzg1MTUgTDIzLjc5MDA4NzUsMjEuODE3ODUxNSBDMjMuNTc0NzY3OSwyMS44MTcyNSAyMy4zNzg4ODQzLDIxLjY5NDgzNCAyMy4yODYyOTc0LDIxLjUwMzAxMTYgTDEzLjU3OTk0MTcsMS4zODA4NzY2NyBMNS44Nzc1NTEwMiwxLjM4MDg3NjY3IEw1Ljg3NzU1MTAyLDYuMzUyMDMyNyBMOS43OTU5MTgzNyw2LjM1MjAzMjcgQzEwLjAxMTIzNzksNi4zNTI2MzQxNiAxMC4yMDcxMjE1LDYuNDc1MDUwMTYgMTAuMjk5NzA4NSw2LjY2Njg3MjU5IEwyMC4wNDUyNDc4LDI2Ljc4OTAwNzUgWiIvPiYjeGE7PHBhdGggZD0iTTguMTA1NDIyNzQsMjcuODkzNzA5OSBMMC44Mjg0NTQ4MSwyNy44OTM3MDk5IEMwLjYzNTA1NDU3MSwyNy44OTQwOTA3IDAuNDU1MTU1MDA2LDI3Ljc5NTkzNDcgMC4zNTI2NTMwNjEsMjcuNjM0MTA0IEMwLjI0Mzg1ODM5MSwyNy40NjgxODQ4IDAuMjMzMTg1NDI4LDI3LjI1NzU1MzYgMC4zMjQ2NjQ3MjMsMjcuMDgxNzUzMyBMNy45Mzc0OTI3MSwxMS4zODk0NzA4IEM4LjAzMDA3OTY0LDExLjE5NzY0ODQgOC4yMjU5NjMyMywxMS4wNzUyMzI0IDguNDQxMjgyOCwxMS4wNzQ2Mjk4IEw4LjQ0MTI4MjgsMTEuMDc0NjI5OCBDOC42NTUzMzQ4NywxMS4wNzQyMDgyIDguODUwODkwMjIsMTEuMTk0Mjc1MSA4Ljk0NTA3Mjg5LDExLjM4Mzk0NzMgTDEyLjU4OTE1NDUsMTguNzc5OTIyOCBDMTIuNjYzNDY4OCwxOC45MzE3MTIgMTIuNjYzNDY4OCwxOS4xMDg2Nzg2IDEyLjU4OTE1NDUsMTkuMjYwNDY3OSBMOC42MTQ4MTA1LDI3LjU0NTcyNzkgQzguNTMxNDc1MjYsMjcuNzUyMzE5OSA4LjMzMDcyMzEyLDI3Ljg4OTQ2MDkgOC4xMDU0MjI3NCwyNy44OTM3MDk5IEw4LjEwNTQyMjc0LDI3Ljg5MzcwOTkgWiBNMS43MjQwODE2MywyNi43ODkwMDc1IEw3Ljc1Mjc2OTY4LDI2Ljc4OTAwNzUgTDExLjQ2NDAyMzMsMTkuMDU2MDk4MSBMOC40NDY4ODA0NywxMi44OTczODgxIEwxLjcyNDA4MTYzLDI2Ljc4OTAwNzUgWiIvPiYjeGE7PC9nPiYjeGE7PC9nPiYjeGE7PC9kZWZzPiYjeGE7PC9nPiYjeGE7PHN0eWxlIGRhdGEtc3R5bGVkLXZlcnNpb249IjUuMy41IiBkYXRhLXN0eWxlZD0idHJ1ZSI+LmdUWVNWRntjdXJzb3I6cG9pbnRlcjt9Lyohc2MqLyYjeGE7ZGF0YS1zdHlsZWQuZzEwNltpZD0ic2MteWVvSWoiXXtjb250ZW50OiJnVFlTVkYsIn0vKiFzYyovJiN4YTsuZXpkWVhHe3N0cm9rZTojNTU1O2JhY2tncm91bmQtY29sb3I6IzU1NTtzdHJva2Utd2lkdGg6MXB4O30vKiFzYyovJiN4YTtkYXRhLXN0eWxlZC5nMTA3W2lkPSJzYy1kV0lOR2EiXXtjb250ZW50OiJlemRZWEcsIn0vKiFzYyovJiN4YTsuZk12eGNze3N0cm9rZS13aWR0aDowO3N0cm9rZTpub25lO2ZpbGw6I2YyZjNmMzt9Lyohc2MqLyYjeGE7ZGF0YS1zdHlsZWQuZzEwOFtpZD0ic2MtakdwclJ0Il17Y29udGVudDoiZk12eGNzLCJ9Lyohc2MqLyYjeGE7LmNJSXRWZHtmb250LXNpemU6MTBweDtsaW5lLWhlaWdodDoxMi41O3N0cm9rZTpub25lO30vKiFzYyovJiN4YTtkYXRhLXN0eWxlZC5nMTA5W2lkPSJzYy1iUHlocW8iXXtjb250ZW50OiJjSUl0VmQsIn0vKiFzYyovJiN4YTsuZkZOb01Me2ZpbGw6dmFyKC0tY29sb3ItdGV4dC1mb3JtLXNlY29uZGFyeS0xYzNzemssIzY4NzA3OCk7fS8qIXNjKi8mI3hhO2RhdGEtc3R5bGVkLmcxMTlbaWQ9InNjLWNhWFZCdCJde2NvbnRlbnQ6ImZGTm9NTCwifS8qIXNjKi8mI3hhOy5ramtTT1l7Zm9udC13ZWlnaHQ6NDAwO2ZvbnQtc2l6ZToxMnB4O2xpbmUtaGVpZ2h0OjE2cHg7Zm9udC1mYW1pbHk6QW1hem9uIEVtYmVyLEFyaWFsLFJvYm90byxBcmlhbCxzYW5zLXNlcmlmO3RleHQtc2hhZG93Om5vbmU7ZmlsbDp2YXIoLS1jb2xvci10ZXh0LWJvZHktZGVmYXVsdC03bTJiM3IsIzE2MTkxZik7fS8qIXNjKi8mI3hhO2RhdGEtc3R5bGVkLmcxMjBbaWQ9InNjLWhqcmlQYiJde2NvbnRlbnQ6Imtqa1NPWSwifS8qIXNjKi8mI3hhOy5uZGRDe2ZpbGw6I2ZmZjljYztzdHJva2U6dmFyKC0tY29sb3ItdGV4dC1mb3JtLXNlY29uZGFyeS0xYzNzemssIzY4NzA3OCk7c3Ryb2tlLXdpZHRoOjAuNnB4O30vKiFzYyovJiN4YTtkYXRhLXN0eWxlZC5nMTIxW2lkPSJzYy1nVUFFTUMiXXtjb250ZW50OiJuZGRDLCJ9Lyohc2MqLyYjeGE7PC9zdHlsZT4mI3hhOzxzdHlsZT4mI3hhOy5uZXctbG9vay1zdGF0ZS1ub2RlICZndDsgcmVjdDpmaXJzdC1vZi10eXBlIHsmI3hhOyAgc3Ryb2tlOiAjNjg3MDc4OyYjeGE7ICBzdHJva2Utd2lkdGg6IDFweDsmI3hhOyAgZmlsbDogI0ZGRkZGRjsmI3hhO30mI3hhOyYjeGE7Lm5ldy1sb29rLXN0YXRlLW5vZGUgLmVycm9yLWljb24gY2lyY2xlIHsmI3hhOyBzdHJva2UtbGluZWpvaW46IHJvdW5kOyYjeGE7fSYjeGE7JiN4YTsubmV3LWxvb2stc3RhdGUtbm9kZSAuZXJyb3ItaWNvbiBjaXJjbGUsIC5uZXctbG9vay1zdGF0ZS1ub2RlIC5lcnJvci1pY29uIHBhdGggeyYjeGE7IHN0cm9rZTogdmFyKC0tY29sb3ItYm9yZGVyLXN0YXR1cy1lcnJvci1meWJ1OXcsICNkMTMyMTIpOyYjeGE7IGZpbGw6IG5vbmU7JiN4YTsgc3Ryb2tlLXdpZHRoOiAycHg7JiN4YTt9JiN4YTsmI3hhOy5uZXctbG9vay1zdGF0ZS1ub2RlLmhhcy1lcnJvcnMgJmd0OyByZWN0OmZpcnN0LW9mLXR5cGUgeyYjeGE7IHN0cm9rZTogdmFyKC0tY29sb3ItYm9yZGVyLXN0YXR1cy1lcnJvci1meWJ1OXcsICNkMTMyMTIpOyYjeGE7IGZpbGw6IHZhcigtLWNvbG9yLWJhY2tncm91bmQtc3RhdHVzLWVycm9yLWgxYTBpcSwgI2ZkZjNmMSk7JiN4YTt9JiN4YTsmI3hhOy5uZXctbG9vay1zdGF0ZS1ub2RlIC5oYW5kbGUgcGF0aCB7JiN4YTsgIHN0cm9rZTogdmFyKC0tY29sb3ItYm9yZGVyLWRyb3Bkb3duLWl0ZW0taG92ZXItZDMyZjNmLCAjODc5NTk2KTsmI3hhOyAgc3Ryb2tlLXdpZHRoOiAxcHg7JiN4YTsgIGZpbGw6IG5vbmU7JiN4YTt9JiN4YTsmI3hhOy5uZXctbG9vay1zdGF0ZS1ub2RlIHsmI3hhOyAgZm9udC13ZWlnaHQ6IDQwMDsmI3hhOyAgZm9udC1mYW1pbHk6IEFtYXpvbiBFbWJlciwgQXJpYWwsIFJvYm90bywgQXJpYWwsIHNhbnMtc2VyaWY7JiN4YTsgIHRleHQtc2hhZG93OiBub25lOyYjeGE7fSYjeGE7JiN4YTsubmV3LWxvb2stc3RhdGUtbm9kZSAubGluZTEgeyYjeGE7ICBmaWxsOiAjNjg3MDc4OyYjeGE7ICBmb250LXNpemU6IDEycHg7JiN4YTt9JiN4YTsmI3hhOy5zZWxlY3RlZC5ub2RlICZndDsgLm5ldy1sb29rLXN0YXRlLW5vZGUgJmd0OyByZWN0LCYjeGE7LnNlbGVjdGVkLm5vZGUgJmd0OyAubmV3LWxvb2stc3RhdGUtbm9kZSAmZ3Q7IC5uZXctbG9vay1zdGF0ZS1ub2RlICZndDsgcmVjdCwmI3hhOy5zZWxlY3RlZC5ub2RlICZndDsgLm5ldy1sb29rLXN0YXRlLW5vZGUgJmd0OyAuYm91bmRpbmctYm94ICZndDsgLm5ldy1sb29rLXN0YXRlLW5vZGUtc3ViICZndDsgcmVjdCYjeGE7IHsmI3hhOyAgc3Ryb2tlOiB2YXIoLS1jb2xvci1ib3JkZXItc3RhdHVzLWluZm8tMGllZGNyLCAjMDA3M2JiKTsmI3hhOyAgZmlsbDogdmFyKC0tY29sb3ItYmFja2dyb3VuZC1zdGF0dXMtaW5mby15cTNyNDEsICNmMWZhZmYpOyYjeGE7ICBzdHJva2Utd2lkdGg6IDFweDsmI3hhO30mI3hhOyYjeGE7Lm5ldy1sb29rLXN0YXRlLW5vZGUtc3ViIC5pdGVtLXNvdXJjZS5ub3Qtc3BlY2lmaWVkIHsmI3hhOyAgaGVpZ2h0OiAxNXB4OyYjeGE7ICBjb2xvcjogIzY4NzA3ODsmI3hhOyAgZm9udC1mYW1pbHk6ICJBbWF6b24gRW1iZXIiOyYjeGE7ICBmb250LXNpemU6IDEycHg7JiN4YTsgIGxldHRlci1zcGFjaW5nOiAwOyYjeGE7ICBsaW5lLWhlaWdodDogMTZweDsmI3hhOyAgZm9udC13ZWlnaHQ6IDQwMDsmI3hhO30mI3hhOy5uZXctbG9vay1zdGF0ZS1ub2RlLXN1YiAuaXRlbS1zb3VyY2UgLml0ZW0tc291cmNlX25hbWV7JiN4YTsgIGZvbnQtd2VpZ2h0OiA2MDA7JiN4YTt9JiN4YTsubmV3LWxvb2stc3RhdGUtbm9kZS1zdWIgLml0ZW0tc291cmNlLm5vdC1zcGVjaWZpZWQgLml0ZW0tc291cmNlX25hbWV7JiN4YTsgIGZvbnQtd2VpZ2h0OiA0MDA7JiN4YTt9JiN4YTsmI3hhOy5uZXctbG9vay1zdGF0ZS1ub2RlLXN1YiAuaXRlbS1zb3VyY2Uubm90LXNwZWNpZmllZCB7JiN4YTsgIGZvbnQtc3R5bGU6IGl0YWxpYzsmI3hhO30mI3hhOyYjeGE7JiN4YTsmI3hhOy5uZXctbG9vay1zdGF0ZS1ub2RlLXN1YiAuaXRlbS1zb3VyY2UmI3hhOy5zZWxlY3RlZC5ub2RlICZndDsgLm5ldy1sb29rLXN0YXRlLW5vZGUuaGFzLWVycm9ycyAmZ3Q7IHJlY3QsJiN4YTsuc2VsZWN0ZWQubm9kZSAmZ3Q7IC5uZXctbG9vay1zdGF0ZS1ub2RlLmhhcy1lcnJvcnMgJmd0OyAubmV3LWxvb2stc3RhdGUtbm9kZSAmZ3Q7IHJlY3QsJiN4YTt7JiN4YTsgc3Ryb2tlOiB2YXIoLS1jb2xvci1ib3JkZXItc3RhdHVzLWVycm9yLWZ5YnU5dywgI2QxMzIxMik7JiN4YTsgZmlsbDogI2ZkZTBkYTsmI3hhO30mI3hhOyYjeGE7Lm5ldy1sb29rLWdyYXBoIC5kcmFnLXNvdXJjZSB7JiN4YTsgIG9wYWNpdHk6IDAuMjsmI3hhO30mI3hhOyYjeGE7Lm5ldy1sb29rLWdyYXBoIC5lZGdlLCAubmV3LWxvb2stZ3JhcGggcGF0aC5zdGFydGluZy1jb25uZWN0aW9uIHsmI3hhOyAgc3Ryb2tlLXdpZHRoOiAxcHg7JiN4YTsgIHN0cm9rZTogdmFyKC0tY29sb3ItdGV4dC1mb3JtLXNlY29uZGFyeS0xYzNzemssICM2ODcwNzgpOyYjeGE7ICBtYXJrZXItZW5kOiB1cmwoI2xhcmdlLWFycm93aGVhZCk7JiN4YTt9JiN4YTsmI3hhOy5uZXctbG9vay1ncmFwaCAuZWRnZS1sYWJlbCB7JiN4YTsgIGN1cnNvcjogcG9pbnRlcjsmI3hhO30mI3hhOyYjeGE7Lm5ldy1sb29rLWdyYXBoIC5lZGdlLWxhYmVsIHJlY3QgeyYjeGE7ICBzdHJva2Utd2lkdGg6IDFweDsmI3hhOyAgc3Ryb2tlOiB2YXIoLS1jb2xvci1ib3JkZXItY29udHJvbC1kZWZhdWx0LWJ3a2JtdiwgIzg3OTU5Nik7JiN4YTsgIGZpbGw6IHZhcigtLWNvbG9yLWJhY2tncm91bmQtY29udGFpbmVyLWhlYWRlci1nOXJnMGosICNmYWZhZmEpOyYjeGE7fSYjeGE7JiN4YTsubmV3LWxvb2stZ3JhcGggLmVkZ2UtbGFiZWwuc2VsZWN0ZWQgcmVjdCB7JiN4YTsgIHN0cm9rZTogdmFyKC0tY29sb3ItYm9yZGVyLXN0YXR1cy1pbmZvLTBpZWRjciwgIzAwNzNiYik7JiN4YTsgIGZpbGw6IHZhcigtLWNvbG9yLWJhY2tncm91bmQtc3RhdHVzLWluZm8teXEzcjQxLCAjZjFmYWZmKTsmI3hhOyAgc3Ryb2tlLXdpZHRoOiAwLjZweDsmI3hhO30mI3hhOyYjeGE7JiN4YTsmI3hhOy5uZXctbG9vay1ncmFwaCAuZWRnZS1sYWJlbCAubGFiZWwgeyYjeGE7ICBmaWxsOiB2YXIoLS1jb2xvci10ZXh0LWZvcm0tc2Vjb25kYXJ5LTFjM3N6aywgIzY4NzA3OCk7JiN4YTsgIGZvbnQtZmFtaWx5OiBBbWF6b24gRW1iZXIsIEFyaWFsLCBSb2JvdG8sIEFyaWFsLCBzYW5zLXNlcmlmOyYjeGE7fSYjeGE7JiN4YTsvKiBjZW50ZXJpbmcgdGhlIHNoYXBlIHRleHQgKi8mI3hhO0AtbW96LWRvY3VtZW50IHVybC1wcmVmaXgoKSB7JiN4YTsgIC5uZXctbG9vay1ncmFwaCAuc2hhcGUgKyB0ZXh0LCYjeGE7ICAubmV3LWxvb2stZ3JhcGggLmVkZ2UtbGFiZWwgdGV4dCB7JiN4YTsgICAgdHJhbnNmb3JtOiB0cmFuc2xhdGVZKDMuNXB4KTsmI3hhOyAgfSYjeGE7fSYjeGE7JiN4YTsubmV3LWxvb2stZ3JhcGggLmVkZ2UgcGF0aCB7JiN4YTsgIG1hcmtlci1lbmQ6IHVybCgjbGFyZ2UtYXJyb3doZWFkKSAhaW1wb3J0YW50OyYjeGE7fSYjeGE7JiN4YTsubmV3LWxvb2stZ3JhcGggLmVkZ2Uuc2VsZWN0ZWQgcGF0aHsmI3hhOyAgc3Ryb2tlOiB2YXIoLS1jb2xvci1ib3JkZXItc3RhdHVzLWluZm8tMGllZGNyLCAjMDA3M2JiKTsmI3hhOyAgc3Ryb2tlLXdpZHRoOiAxLjFweDsmI3hhO30mI3hhOyYjeGE7Lm5ldy1sb29rLWdyYXBoIC5lZGdlLmRyYWdnaW5nLW92ZXIgcGF0aCwgLm5ldy1sb29rLWdyYXBoICBnLmRyYWdnaW5nLW92ZXIgLnN0YXJ0aW5nLWNvbm5lY3Rpb24geyYjeGE7ICBzdHJva2U6ICM1Qzg2RkY7JiN4YTsgIHN0cm9rZS13aWR0aDogMnB4OyYjeGE7fSYjeGE7JiN4YTsubmV3LWxvb2stZ3JhcGggLmVkZ2UuZHJhZ2dpbmctb3ZlciBwYXRoLCAubmV3LWxvb2stZ3JhcGggLmRyYWdnaW5nLW92ZXIgcGF0aC5zdGFydGluZy1jb25uZWN0aW9uIHsmI3hhOyAgbWFya2VyLWVuZDogdXJsKCNsYXJnZS1oaWdobGlnaHRlZC1hcnJvd2hlYWQpICFpbXBvcnRhbnQ7JiN4YTt9JiN4YTsmI3hhOy5uZXctbG9vay1ncmFwaCAuZWRnZS5kcmFnZ2luZy1vdmVyIC5lZGdlLWxhYmVsIHRleHQgeyYjeGE7ICBmaWxsOiAjNUM4NkZGOyYjeGE7fSYjeGE7JiN4YTsjbGFyZ2UtaGlnaGxpZ2h0ZWQtYXJyb3doZWFkIHsmI3hhOyAgZmlsbDogIzVDODZGRjsmI3hhO30mI3hhOyYjeGE7I2xhcmdlLWhpZ2hsaWdodGVkLWFycm93aGVhZCBwYXRoIHsmI3hhOyAgc3Ryb2tlOiBub25lOyYjeGE7fSYjeGE7JiN4YTsubmV3LWxvb2stZ3JhcGggLmVkZ2UuZHJvcC1ub3Qtc3VwcG9ydGVkIHBhdGgsIGcuZHJvcC1ub3Qtc3VwcG9ydGVkIC5zdGFydGluZy1jb25uZWN0aW9uIHsmI3hhOyAgc3Ryb2tlOiByZWQ7JiN4YTt9JiN4YTsmI3hhOy5uZXctbG9vay1ncmFwaCAuZWRnZS5kcm9wLW5vdC1zdXBwb3J0ZWQgLmVkZ2UtbGFiZWwgdGV4dCB7JiN4YTsgIGZpbGw6IHJlZDsmI3hhO30mI3hhOyYjeGE7Lm5ldy1sb29rLWdyYXBoIC5lZGdlLmRyb3Atbm90LXN1cHBvcnRlZCBwYXRoIHsmI3hhOyAgbWFya2VyLWVuZDogdXJsKCNsYXJnZS1lcnJvci1hcnJvd2hlYWQpICFpbXBvcnRhbnQ7JiN4YTt9JiN4YTsmI3hhOyNsYXJnZS1lcnJvci1hcnJvd2hlYWQgeyYjeGE7ICBmaWxsOiByZWQ7JiN4YTt9JiN4YTsmI3hhOyYjeGE7Lm5vZGUuUGxhY2Vob2xkZXIuZHJhZ2dpbmctb3ZlciByZWN0IHsmI3hhOyAgc3Ryb2tlOiB2YXIoLS1jb2xvci1ib3JkZXItc3RhdHVzLWluZm8tMGllZGNyLCAjMDA3M2JiKTsmI3hhOyAgZmlsbDogdmFyKC0tY29sb3ItYmFja2dyb3VuZC1zdGF0dXMtaW5mby15cTNyNDEsICNmMWZhZmYpOyYjeGE7ICBzdHJva2Utd2lkdGg6IDJweDsmI3hhO30mI3hhOyYjeGE7Lm5vZGUuUGxhY2Vob2xkZXIuZHJhZ2dpbmctb3ZlciAubGFiZWwgeyYjeGE7ICBmaWxsOiB2YXIoLS1jb2xvci10ZXh0LXN0YXR1cy1pbmZvLTA5cjIzZywgIzAwNzNiYik7JiN4YTt9JiN4YTsmI3hhO2cuUGxhY2Vob2xkZXIgcmVjdCB7JiN4YTsgIHN0cm9rZS1kYXNoYXJyYXk6IDUgNDsmI3hhOyAgc3Ryb2tlOiB2YXIoLS1jb2xvci1ib3JkZXItZHJvcGRvd24taXRlbS1ob3Zlci1kMzJmM2YsICM4Nzk1OTYpOyYjeGE7ICBmaWxsOiB2YXIoLS1jb2xvci1iYWNrZ3JvdW5kLWNvbnRyb2wtZGVmYXVsdC04eG15OTQsICNmZmZmZmYpOyYjeGE7ICBzdHJva2Utd2lkdGg6IDFweDsmI3hhO30mI3hhOyYjeGE7Zy5QbGFjZWhvbGRlciAubGFiZWwgeyYjeGE7ICBmb250LXN0eWxlOiBpdGFsaWM7JiN4YTsgIGZpbGw6IHZhcigtLWNvbG9yLXRleHQtaW5wdXQtcGxhY2Vob2xkZXItcnR2anA1LCAjNjg3MDc4KTsmI3hhO30mI3hhOyYjeGE7Lm5vZGUuUGxhY2Vob2xkZXIuZHJvcC1ub3Qtc3VwcG9ydGVkIHJlY3QgeyYjeGE7ICBzdHJva2U6IHJlZDsmI3hhO30mI3hhOyYjeGE7Lm5vZGUuUGxhY2Vob2xkZXIuZHJvcC1ub3Qtc3VwcG9ydGVkIC5sYWJlbCB7JiN4YTsgIGZpbGw6IHJlZDsmI3hhO30mI3hhOzwvc3R5bGU+JiN4YTs8c3R5bGU+LmxpbmUyIHsgZm9udC1zaXplOiAxNHB4IH08L3N0eWxlPiYjeGE7PC9zdmc+;" vertex="1" parent="1">
          <mxGeometry x="220" y="680" width="1234.29" height="1080" as="geometry" />
        </mxCell>
      </root>
    </mxGraphModel>
  </diagram>
</mxfile>
